<?xml version="1.0" encoding="UTF-8" standalone="no"?>
<svg
   xmlns:dc="http://purl.org/dc/elements/1.1/"
   xmlns:cc="http://creativecommons.org/ns#"
   xmlns:rdf="http://www.w3.org/1999/02/22-rdf-syntax-ns#"
   xmlns:svg="http://www.w3.org/2000/svg"
   xmlns="http://www.w3.org/2000/svg"
   xmlns:sodipodi="http://sodipodi.sourceforge.net/DTD/sodipodi-0.dtd"
   xmlns:inkscape="http://www.inkscape.org/namespaces/inkscape"
   version="1.1"
   id="Layer_1"
   x="0px"
   y="0px"
   viewBox="0 0 2560.0029 424.56601"
   enable-background="new 0 0 2604.051 497.534"
   sodipodi:docname="sydney-bridge.svg"
   width="2560.0029"
   height="424.56601"
   inkscape:version="1.0.1 (3bc2e813f5, 2020-09-07)">
  <metadata
     id="metadata35">
    <rdf:RDF>
      <cc:Work
         rdf:about="">
        <dc:format>image/svg+xml</dc:format>
        <dc:type
           rdf:resource="http://purl.org/dc/dcmitype/StillImage" />
        <dc:title />
      </cc:Work>
    </rdf:RDF>
  </metadata>
  <defs
     id="defs33">
    <rect
       x="-111.74887"
       y="-251.43496"
       width="2449.1628"
       height="744.99248"
       id="rect849" />
  </defs>
  <sodipodi:namedview
     pagecolor="#ffffff"
     bordercolor="#666666"
     borderopacity="1"
     objecttolerance="10"
     gridtolerance="10"
     guidetolerance="10"
     inkscape:pageopacity="0"
     inkscape:pageshadow="2"
     inkscape:window-width="1305"
     inkscape:window-height="664"
     id="namedview31"
     showgrid="false"
     fit-margin-top="0"
     fit-margin-left="0"
     fit-margin-right="0"
     fit-margin-bottom="0"
     inkscape:zoom="0.16493772"
     inkscape:cx="1695.6378"
     inkscape:cy="67.504109"
     inkscape:window-x="0"
     inkscape:window-y="0"
     inkscape:window-maximized="0"
     inkscape:current-layer="Layer_1"
     inkscape:document-rotation="0" />
  <path
     d="m 0.003,424.566 h 2560 V 238.053 c -9.733,-4.587 -21.414,-6.84 -31.6,-2.413 -1.653,-0.893 -3.307,-1.8 -4.893,-2.693 -0.04,-4.213 -0.107,-8.427 -0.227,-12.64 -1.6,0.107 -3.16,0.213 -4.68,0.32 -0.707,-6.333 -8.267,-3.333 -12.547,-4.067 -0.067,-1.773 -0.093,-3.533 -0.093,-5.293 -5.72,0.093 -11.44,0.173 -17.133,-0.093 -0.013,-0.96 -0.053,-2.893 -0.067,-3.867 -1.48,-0.52 -2.933,-1.04 -4.346,-1.547 0,-1.013 -0.013,-3.04 -0.027,-4.053 -3.72,0.093 -7.414,0.187 -11.107,0.213 -0.413,0.36 -1.227,1.067 -1.64,1.427 -5.412,-2.971 -7.641,0.662 -28.107,1.147 -0.133,2.267 -0.293,4.52 -0.333,6.787 -4.4,0.307 -8.8,0.24 -13.147,-0.307 0.213,-5.2 0.213,-10.413 -0.187,-15.6 -9.614,0.293 -19.347,-0.88 -28.84,0.933 -0.094,3.027 0,6.107 -0.72,9.067 -3.493,0.787 -7.093,0.867 -10.6,1.253 -0.253,1.6 -0.467,3.2 -0.667,4.813 -11.293,3.92 -23.52,1.453 -35.094,4.04 0.307,10.96 0.08,21.933 0,32.907 -4.973,-0.013 -9.866,-0.773 -14.613,-2.173 -0.16,0.68 -0.467,2.04 -0.627,2.72 -0.107,-0.8 -0.333,-2.4 -0.453,-3.2 -3.84,1.933 -8.053,2.8 -12.307,2.067 -1.12,-0.933 -2.28,-1.773 -3.48,-2.52 -2.64,0.653 -5,2.427 -7.773,2.373 -55.827,-1.336 -49.243,0.875 -54.934,-4.347 -0.36,0.893 -1.066,2.693 -1.427,3.587 -1.76,-0.467 -3.413,-1.187 -5.04,-1.867 -0.68,0.44 -2.04,1.333 -2.72,1.773 -5.4,-0.013 -10.8,0.04 -16.173,-0.053 -0.44,-2.347 -0.853,-4.693 -1.28,-7.04 -0.853,0.067 -2.547,0.213 -3.4,0.293 0.067,1.933 0.173,3.88 0.307,5.827 -5.294,1.274 -41.685,-0.25 -48.92,-0.333 -0.053,-5.56 -0.146,-11.12 -0.586,-16.667 -3.1,-5.577 1.69,-36.113 -6,-50.253 -3.293,-7.187 -1.573,-15.36 -3.733,-22.813 -1.24,-4.32 -2.32,-8.68 -3.133,-13.107 -2.08,-0.147 -4.133,-0.28 -6.147,-0.413 -0.453,-3.12 0.64,-6.867 -1.587,-9.427 -12.4,-1.333 -24.933,1.013 -37.373,0.107 -2.507,-0.533 -3.933,-3.347 -6.507,-3.573 -0.279,-0.02 -47.437,0.937 -50.907,1.133 -0.4,3 -0.747,6 -1.093,9.013 -1.947,0.333 -3.88,0.52 -5.707,1.147 -2.693,9.28 -5.44,18.787 -5.08,28.587 0.08,6.6 -5.213,11.813 -5.16,18.413 -0.137,9.24 -3.692,47.207 -3.32,55.6 -2.333,-0.08 -4.64,-0.133 -6.933,-0.187 0.613,-3.453 -0.947,-8.28 2.88,-10.24 0.013,-0.453 0.053,-1.347 0.067,-1.787 -0.68,-0.52 -2.013,-1.573 -2.693,-2.093 -0.587,-7.853 1.28,-15.947 -1.16,-23.6 -9.906,-1.067 -19.96,-2.507 -28.88,-7.24 -54.594,-10.847 -162.798,-74.364 -334.027,-131.133 -35.64,-12.17 -128.872,-35.522 -148.8,-36.987 -3.728,-1.344 -46.283,-9.41 -59.173,-10.56 -4.16,-3.44 -9.8,-1.76 -14.627,-3.12 -4.653,-1.267 -9.413,-1.893 -14.2,-2.027 -3.787,-0.12 -6.747,-3.187 -10.56,-3.16 -6.24,-0.293 -12.4,-1.653 -18.64,-1.507 -4.133,0.107 -7.96,2.053 -12.067,2.053 -16.373,-2.253 -32.973,-2.013 -49.373,-4.133 -1,-0.079 -28.789,-5.116 -42.347,-5.093 -2.413,2.44 -5.8,2.453 -8.987,2.347 -0.48,-0.587 -1.427,-1.787 -1.907,-2.387 -5.707,0.027 -11.413,-0.067 -17.107,0.12 -4.867,2.04 -10.16,1.427 -15.107,0.04 -2.333,-1 -4.467,0.467 -6.56,1.293 -2.733,-1.2 -5.413,-2.48 -8.053,-3.84 -1.48,1.747 -2.973,3.48 -4.453,5.213 -0.56,-0.48 -1.68,-1.44 -2.24,-1.907 -1.76,-0.293 -3.493,-0.653 -5.187,-1.08 -4.693,2.56 -10.16,2.88 -15.333,2.133 -3.867,-0.76 -7.28,1.68 -10.893,2.56 -0.667,-1.48 -1.32,-2.96 -1.973,-4.44 -6.28,0.347 -12.573,0.787 -18.827,1.467 -6.756,10.779 -12.393,-5.559 -47.8,7.507 -30.479,-0.152 -171.047,26.458 -235.08,48.973 -127.814,38.422 -222.413,92.343 -255.427,107.333 -28.649,14.041 -75.507,35.12 -75.507,35.12 -12.653,6.52 -27.147,8.693 -39.587,15.653 -2.68,0.773 -5.373,1.493 -8.08,2.133 -0.467,-5.853 -0.72,-11.88 -3.173,-17.32 -4.185,-9.099 -0.579,-16.704 -8.28,-35.787 -1.667,-1.027 -3.8,-0.853 -5.64,-1.307 -0.4,-2.68 -0.773,-5.36 -1.12,-8.04 -20.314,-3.67 -8.697,1.922 -31.893,-2.013 -6.52,1.64 -13.2,2.493 -19.907,1.973 -0.067,2 -0.133,4.013 -0.187,6.013 -1.733,-0.013 -3.453,-0.04 -5.173,-0.067 -0.04,-2.88 -0.067,-5.747 -0.08,-8.627 -3.4,-1.293 -6.987,-2.267 -10.653,-1.72 -8.92,0.88 -18.013,-0.467 -26.813,1.547 -5.187,1.08 -10.427,-0.413 -15.653,-0.04 -0.08,2.907 -0.16,5.827 -0.267,8.747 -2.093,0.387 -4.2,0.733 -6.227,1.36 -1.44,3.84 -1.693,8 -2.933,11.893 -2.52,6.947 -0.373,14.773 -3.867,21.467 -4.96,8.588 -5.521,55.821 -5.573,65.333 -4.547,0.227 -9.107,0.267 -13.64,-0.147 0.013,-3.107 0.027,-6.2 0.04,-9.307 -6.973,0.253 -13.96,0.187 -20.933,-0.16 0.013,3.6 0,7.187 0,10.787 -4.12,-0.027 -8.253,0.12 -12.32,0.84 -7.64,1.333 -15.493,-0.413 -23.08,1.427 -1.213,-4.72 -1.227,-9.6 -0.853,-14.427 -1.613,0.04 -3.227,0.093 -4.827,0.147 -0.733,4.853 -1.533,9.707 -1.813,14.613 -4.48,0.093 -8.96,0.173 -13.44,0.24 -0.587,-3.4 1.28,-8.067 -1.627,-10.56 -5.573,-0.48 -11.187,0 -16.773,-0.293 0,0.92 -0.027,2.76 -0.027,3.68 -1.253,2.733 -2.307,5.547 -3.213,8.413 -10,-1.8 -20.16,-0.12 -30.093,1.387 -0.52,-4.16 -1.413,-8.253 -2,-12.387 0.827,-0.093 2.467,-0.267 3.293,-0.347 -0.067,-0.907 -0.2,-2.693 -0.267,-3.587 -2.533,0.613 -5.067,1.253 -7.6,1.893 -0.04,2.333 -0.067,4.667 -0.107,7 -0.64,0.56 -1.92,1.68 -2.56,2.24 -0.08,1.667 -0.147,3.347 -0.213,5.013 -5.293,0.093 -10.6,0.16 -15.893,0.027 -0.08,-0.813 -0.24,-2.44 -0.32,-3.253 -2.533,-1.08 -2.72,-3.653 -3.053,-6.013 -1.387,-0.067 -2.773,-0.12 -4.16,-0.173 0.027,3.653 -1.387,6.92 -5.44,7.187 -0.387,0.76 -1.147,2.253 -1.533,3.013 -0.387,-3.853 -0.987,-7.68 -1.933,-11.427 -1.627,-0.053 -3.253,-0.107 -4.867,-0.16 0,4.04 -0.013,8.08 -0.027,12.12 -6.227,0.04 -12.453,-0.013 -18.667,-0.04 -0.067,-1.013 -0.187,-3.013 -0.24,-4.013 h -7.733 c -0.053,2.067 -0.093,4.147 -0.147,6.227 -0.453,-0.893 -1.333,-2.667 -1.773,-3.547 -0.853,0.013 -2.56,0.04 -3.413,0.053 -1.213,-3.453 -1.773,-7.08 -1.92,-10.733 -1.453,0.04 -2.893,0.093 -4.347,0.133 -0.987,4.213 -1.773,8.48 -1.867,12.827 -2.227,-0.96 -4.56,-0.68 -6.827,-0.013 0.04,-0.533 0.12,-1.6 0.16,-2.133 -3.533,-0.76 -7.08,-1.413 -10.667,-1.813 -0.053,-1.64 -0.107,-3.267 -0.147,-4.88 -5.08,0.2 -10.107,-0.6 -15.147,-1.027 -1.613,1.827 -2.893,3.92 -4.4,5.84 -0.107,0.507 -0.32,1.533 -0.427,2.04 -1.213,1.347 -2.427,2.68 -3.64,4.027 -0.933,-0.907 -1.733,-1.933 -2.387,-3.04 -0.64,-0.013 -1.92,-0.04 -2.56,-0.04 -0.6,1.213 -1.213,2.44 -1.827,3.667 -5.813,-1.827 -11.72,0.56 -17.587,0.693 -0.04,-0.92 -0.133,-2.76 -0.173,-3.68 -1.613,-1.853 -3.52,-3.573 -4.333,-5.947 0.76,-0.613 2.293,-1.853 3.053,-2.48 0.027,-1.533 0.04,-3.053 0.053,-4.587 -3.44,0.387 -7.067,1.213 -8.747,4.627 -4.56,0.92 -11.52,-2.213 -13.88,3.093 -0.107,-0.587 -0.333,-1.773 -0.44,-2.373 -0.813,-0.573 -2.427,-1.72 -3.24,-2.293 -0.88,0.2 -2.627,0.613 -3.507,0.813 -2.72,-0.72 -5.467,-1.387 -8.213,-1.973 -0.44,-0.307 -1.293,-0.92 -1.733,-1.213 -4.413,-0.8 -8.84,-1.587 -13.333,-1.84 -0.027,-1 -0.08,-2.987 -0.107,-3.973 -2.227,-0.467 -4.48,-0.867 -6.733,-1.213 -1.733,3.88 -6.333,2.667 -9.733,3.16 -1.053,1.4 -2.107,2.8 -3.173,4.2 -0.107,1.627 -0.227,3.253 -0.347,4.88 5.067,1.24 12.427,2.387 15.4,-3.04 0.973,1.64 2,3.267 3.08,4.853 0.56,3.333 1.213,6.64 1.893,9.96 -9.827,1.493 -19.747,2.147 -29.64,3.08 V 424.566 Z M 2012.137,222.413 c 0.8,-0.067 2.413,-0.213 3.213,-0.293 0.947,-5.32 5.067,0.013 6.56,2.187 2.784,2.928 -2.434,7.193 -5.52,19.573 0.2,-1.947 0.413,-3.893 0.707,-5.827 -2.28,-0.373 -4.573,-0.56 -6.84,-0.68 -0.6,-5.093 0.413,-10.093 1.88,-14.96 z m -184.12,0.867 c -2.427,0.587 -4.867,1.013 -7.213,1.787 3.427,-4.667 6.56,-9.573 8.12,-15.213 -0.067,4.479 -0.067,9.013 -0.907,13.426 z m 1.16,-26.24 c -3.64,6.627 -8.067,12.813 -12.187,19.16 -1.04,-1.747 -1.773,-3.68 -1.64,-5.733 -0.704,-37.066 -1.016,-30.123 3.413,-37.413 3.84,-5.4 6.613,-11.493 10.813,-16.627 0.574,13.52 0.734,27.133 -0.399,40.613 z m 24.826,44.187 c 1.093,-2.2 1.787,-5.08 4.387,-6 2.467,0.547 1.88,3.813 2.8,5.64 -2.4,0.16 -4.813,0.293 -7.187,0.36 z m 43.854,40.413 c -1.92,-3.467 -2.36,-7.36 -2.2,-11.253 2.08,0.013 4.187,0.027 6.307,0.04 -1.027,3.853 -2.534,7.56 -4.107,11.213 z m 15.2,5 c -2.547,-1.173 -5.6,-4.587 -7.52,-0.627 0.973,-5.453 5.32,-9.293 6.693,-14.6 1.053,-0.067 3.16,-0.173 4.213,-0.227 -0.68,5.281 1.8,11.841 -3.386,15.454 z m 12.093,-100.12 c 4.747,1.72 10.2,2.827 13.92,6.467 0.2,4.667 -2.16,9.24 -4.813,12.933 -2.747,0.96 -5.72,0.467 -8.533,0.56 -0.121,-6.667 -0.867,-13.293 -0.574,-19.96 z m -9.147,41.213 c -0.987,0.12 -2.987,0.347 -3.973,0.453 -0.16,4.907 -0.253,10.547 4.733,13.213 -7.387,0.067 -14.76,0.227 -22.12,-0.227 -0.013,-2.947 0,-5.893 0.067,-8.84 1.813,-0.64 2.64,-2.147 2.92,-3.96 -1.053,-0.773 -2.08,-1.56 -3.08,-2.333 0,0 22.212,-41.531 22.213,-41.533 1.614,14.401 -0.72,28.814 -0.76,43.227 z m -22.106,-15.8 c -0.413,-12.72 -0.467,-25.427 -0.507,-38.147 6.547,1.173 12.307,4.68 18.427,7.093 -5.96,10.361 -12.067,20.628 -17.92,31.054 z m 3.493,-48.293 c -1.72,1.867 -4.253,2.24 -6.52,2.92 0.32,-0.72 0.96,-2.173 1.28,-2.893 -1.44,-1 -2.96,-1.88 -4.64,-2.293 -0.467,-0.693 -1.4,-2.093 -1.867,-2.8 3.92,1.653 7.707,3.666 11.747,5.066 z m -13.867,5.867 c 0.625,5.283 -11.161,23.182 -13.84,26.587 0.253,-11 -0.293,-22 -0.36,-33 4.987,1.399 10.027,3.239 14.2,6.413 z m 1.587,13.653 c 0.667,8.227 -0.173,16.467 0.267,24.707 0.227,11.613 -1.853,23.933 -9.32,33.133 -2.28,0.68 -4.36,-0.28 -5.92,-1.84 3.853,-0.44 2.973,-3.28 2.08,-5.88 0.613,-0.493 1.84,-1.48 2.453,-1.973 -0.027,-2.067 -0.027,-4.12 0,-6.187 -1,-0.013 -2.987,-0.067 -3.987,-0.08 0.36,-5.187 -0.467,-10.307 -1.52,-15.347 7.014,-7.746 10.24,-17.92 15.947,-26.533 z m -23.573,27.36 c -0.067,3.787 -3.693,5.827 -6.013,8.267 -4.013,6.947 -7.067,14.467 -11.68,21.08 -1.04,0.093 -3.12,0.293 -4.16,0.4 0.08,-3.573 -0.573,-7.467 1.4,-10.68 0.08,-0.693 0.24,-2.08 0.32,-2.773 -0.64,-0.44 -1.933,-1.293 -2.573,-1.72 0.96,-3.2 0.92,-6.547 0.68,-9.84 -2.762,-2.525 -1.858,-1.738 -2.053,-18.907 8.04,-12.333 14.813,-25.533 23.613,-37.333 1.359,7.365 0.549,47.78 0.466,51.506 z m -23.734,-26.707 c -0.533,-11.6 -0.4,-23.227 -0.267,-34.84 6.213,1.427 11.653,4.88 17.52,7.213 -4.653,9.827 -11.199,18.627 -17.253,27.627 z m 8.8,-42.986 c -1.12,-0.213 -3.333,-0.627 -4.453,-0.827 -0.533,0.613 -1.613,1.84 -2.16,2.453 -1.84,-0.627 -3.64,-1.267 -5.4,-1.973 -0.92,-3.08 -4.293,-4.333 -5.32,-7.36 6.2,1.52 11.6,5.04 17.333,7.707 z m -31.693,-2.707 c 3.933,1.467 7.707,3.387 11.733,4.68 1.28,2.04 1.92,4.467 0.293,6.533 -3.827,5.907 -7.413,12.027 -11.92,17.44 -0.027,-1.002 -0.431,-15.867 -1.6,-17.173 -0.199,-3.893 0.907,-7.667 1.494,-11.48 z M 591.363,391.04 c -1.893,0.8 -2.493,0.227 -1.8,-1.693 1.907,-0.774 2.507,-0.214 1.8,1.693 z m 0.254,-60.173 c -1.253,1.693 -2.707,3.213 -3.947,4.907 -0.787,0.04 -2.36,0.133 -3.147,0.187 -1.067,1.04 -2.133,2.08 -3.187,3.133 -1.387,-1.293 -2.773,-2.573 -4.16,-3.84 -0.4,-15.52 -1.76,-30.973 -1.92,-46.507 1.28,-0.16 2.56,-0.307 3.853,-0.453 0.474,1 3.623,7.268 15.173,42.92 -0.665,-0.081 -1.999,-0.254 -2.665,-0.347 z m 11.133,-6.76 c -2.173,-3.973 -4.747,-8.013 -4.987,-12.667 -3.373,-8.107 -8.973,-15.68 -9.52,-24.667 4.693,0.013 9.387,-0.067 14.08,-0.133 1.573,3.52 3.467,6.893 4.88,10.48 0.373,6.68 -0.613,13.387 0.107,20.067 0.453,3.013 -1.587,6.173 -4.56,6.92 z m 100.947,70.186 c -2.187,0.627 -2.92,-0.133 -2.213,-2.293 2.159,-0.627 2.893,0.147 2.213,2.293 z m 634.32,-0.306 c -2.547,-0.04 -4.707,-3.027 -1.6,-4.32 2.12,-0.547 3.133,2.813 1.6,4.32 z m 170.346,-67.907 c -0.307,-0.72 -0.933,-2.16 -1.24,-2.88 4.88,0.733 9.533,2.48 14.24,3.947 -4.333,-0.454 -8.76,-0.04 -13,-1.067 z m 253.707,-87.053 c -0.973,-2.32 -0.867,-4.893 -1.2,-7.333 0.653,-0.36 1.96,-1.067 2.613,-1.427 0.56,0.627 1.653,1.88 2.2,2.507 0.747,0.12 2.227,0.347 2.96,0.467 0.773,0.373 2.307,1.147 3.08,1.533 0.68,1.64 1.373,3.28 2.04,4.947 -3.88,-0.201 -8.013,0.719 -11.693,-0.694 z m 12.2,-35.867 c -2.747,-2.067 -5.907,-3.427 -9.013,-4.787 -0.2,-1.027 -0.587,-3.107 -0.787,-4.147 3.12,-5.147 6.027,-10.467 10,-15.027 0.267,7.988 0.187,15.988 -0.2,23.961 z m 8.653,75.413 c -1.64,-0.867 -1.573,-1.787 0.2,-2.773 1.64,0.84 1.574,1.773 -0.2,2.773 z m 15.52,-45.186 c 2.92,1.64 7.307,2.773 7.28,6.907 -2.693,-2.027 -5.12,-4.347 -7.28,-6.907 z m 7.707,-12.627 c -0.467,-0.627 -1.413,-1.867 -1.88,-2.493 -0.92,0.413 -2.76,1.253 -3.68,1.68 -1.173,-2.907 -3.933,-4.307 -6.413,-5.84 3.813,-7.133 8.16,-14.133 12.24,-21.187 0.413,9.293 -0.4,18.56 -0.267,27.84 z m 0.6,-86.453 c 2.119,8.81 -0.705,10.434 0.347,41.493 0.636,6.798 -16.258,29.488 -19.667,33.88 -0.067,0.373 -0.187,1.107 -0.24,1.48 -1.573,-1.293 -4.173,-2.12 -3.68,-4.627 -0.347,-13.347 -1.053,-26.72 -0.52,-40.08 6.107,-10.067 13.12,-19.653 19.427,-29.627 0.933,-1.386 2.16,-4.159 4.333,-2.519 z m -7.96,-3.96 c 2.72,1.24 -0.067,4 -0.973,5.533 -5.093,6.693 -9.147,14.227 -15.08,20.227 -0.013,-4.627 0.133,-9.307 -1.053,-13.813 -0.52,-6.213 0.2,-12.48 0.067,-18.707 6.012,1.2 11.452,4.306 17.039,6.76 z M 1787.87,115.6 c -2.893,-0.12 -5.707,-0.4 -8.533,-0.667 -1.6,-1.427 -3.173,-2.853 -4.653,-4.347 4.759,0.027 9.439,2.134 13.186,5.014 z m -27.88,-1.547 c 4.547,1.373 8.88,3.32 13.24,5.187 -1.742,7.671 -11.075,19.184 -13.12,21.12 -0.267,-8.76 -0.133,-17.533 -0.12,-26.307 z m 14.427,14.934 c 1.903,5.917 0.702,6.686 0.2,40 -4.827,6.4 -8.773,13.467 -14.213,19.4 -0.773,-9.973 0.08,-19.973 -0.413,-29.96 0.338,-7.533 -3.483,-6.298 14.426,-29.44 z m -21.227,-11.88 c -0.172,35.662 4.429,30.375 -19.44,61.973 -0.947,1.813 -3.013,1.387 -4.653,1.293 -1,-4.987 -2.267,-10.027 -1.693,-15.133 0.853,-7.56 -0.267,-15.133 -0.107,-22.707 1.814,-5.89 17.383,-23.061 22.787,-32.467 3.373,0.507 2.959,4.507 3.106,7.041 z m -1.467,74.266 c -1.907,-1.933 -4.44,-2.88 -7.067,-3.24 -2.36,-1.453 -4.76,-2.827 -7.12,-4.227 4.507,-7.6 9.733,-14.733 14.667,-22.053 0.84,9.854 -0.586,19.68 -0.48,29.52 z m -24.613,-90.4 c 6.48,1.613 12.56,4.507 18.733,7.04 -5.187,8.24 -11.227,15.88 -17.053,23.653 -0.453,-0.013 -1.347,-0.027 -1.8,-0.04 -0.173,-10.199 0.013,-20.439 0.12,-30.653 z m 1.52,120.387 c -0.493,-0.013 -1.467,-0.027 -1.96,-0.04 1.987,-4.84 0.747,-10.053 0.587,-15.08 6.987,3.84 13.453,8.693 20.494,12.52 2.413,1.2 5.907,1.787 6.2,5.093 -0.747,2 -2.893,2.413 -4.613,3.067 0,0.72 0.013,2.16 0.013,2.893 4.813,0.373 5.547,7.2 2.413,9.76 -7.333,0.44 -14.693,0.027 -22.013,0.147 -1.04,-0.933 -2.04,-1.853 -3.027,-2.76 -0.08,-1.747 -0.133,-3.507 -0.173,-5.24 2.227,-1.893 4.893,-3.027 7.813,-3.387 0.04,-0.627 0.107,-1.88 0.133,-2.493 -2.774,-0.427 -5.507,-1.307 -5.867,-4.48 z M 1705.363,92.72 c 4.093,1.093 8.36,2.093 11.987,4.387 0.818,4.501 -8.841,15.376 -11.88,18.8 -0.24,-7.72 -0.133,-15.454 -0.107,-23.187 z m 2.147,29.053 c 4.28,-5.16 7.44,-11.213 12.387,-15.8 1.064,39.384 0.088,38.424 -1.547,39.96 -4.293,5 -7.893,10.587 -12.6,15.213 0.458,-14.555 -2.424,-35.139 1.76,-39.373 z m 12.467,53.027 c -2.507,-1.413 -5.04,-2.747 -7.813,-3.493 -0.827,-1.613 -1.68,-3.213 -2.333,-4.893 2.613,-5.16 6.2,-9.813 10,-14.173 0.332,7.519 0.119,15.039 0.146,22.559 z m -14.44,18.427 c 5,3.493 12.373,4.973 14.28,11.587 1.6,5.387 0.12,11.2 1.573,16.667 -1.693,0.027 -3.36,0.053 -5.013,0.093 -1.587,1.653 -2.8,3.587 -3.107,5.907 2.667,1.133 5.36,2.2 8.067,3.293 -0.013,2.547 -0.013,5.093 0,7.653 -5.387,0.6 -10.813,0.507 -16.187,-0.093 0.92,-2.547 1.573,-5.173 1.76,-7.88 1,-0.067 2.987,-0.173 3.987,-0.24 0.133,-3.8 -1.76,-7.133 -5.44,-8.373 -2.24,-19.951 0.638,-5.623 0.08,-28.614 z m -7.574,-30.24 c -2.744,-0.966 -6.829,-2.217 -15.12,-5.533 1.03,-5.459 14.661,-22.256 15.613,-23.307 0.067,9.6 0.934,19.32 -0.493,28.84 z m 0.64,16.32 c -1.827,0.56 -2.52,-0.107 -2.08,-1.987 1.787,-0.56 2.48,0.107 2.08,1.987 z m -0.266,-53.374 c -6.747,10.173 -14.28,19.933 -22.4,29.04 -1.68,-2.12 -4.24,-4.173 -3.84,-7.16 0.108,-34.334 -1.446,-25.322 5.32,-34.68 6.947,-7.987 13.013,-16.707 20.067,-24.613 1.814,4.677 1.281,33.903 0.853,37.413 z m -7.614,-38.893 c -0.038,2.802 -16.756,21.925 -18.707,23.88 0.067,-8.667 0.08,-17.333 -0.013,-25.987 -0.746,-5.968 4.031,-4.28 18.72,2.107 z m -18.173,108.667 c -0.093,-6.4 -0.667,-12.773 -0.547,-19.173 4.69,0.517 26.384,13.075 27.493,13.733 -0.573,11.587 1.387,23.16 -0.4,34.68 -1.987,0.147 -3.947,0.32 -5.893,0.493 0.427,1.467 0.92,2.947 1.48,4.4 4.267,0.56 4.587,5.173 5.413,8.533 -8.88,0.453 -17.813,-0.28 -26.707,0.067 -0.893,-2.52 -1.427,-5.133 -1.693,-7.773 2.547,-1.533 5.267,-2.8 8.187,-3.533 -0.027,-0.76 -0.093,-2.28 -0.12,-3.053 -2.067,-0.093 -4.12,-0.2 -6.133,-0.293 -4.373,-8.975 -0.413,-18.695 -1.08,-28.081 z m -11.227,-70.6 c -3.253,3.627 -5.707,8.013 -9.733,10.893 -0.419,-1.505 -0.625,-28.469 -0.64,-29.48 -0.776,-5.016 13.269,-20.205 14.28,-21.227 1.14,39.44 1.012,33.551 -3.907,39.814 z m 3.574,23.773 c -4.133,-1.08 -10.787,-2.867 -8.947,-8.627 2.947,-3.947 5.707,-8.067 9.227,-11.547 1.08,6.681 0.706,13.507 -0.28,20.174 z m -13.854,-74.52 c 3.693,0.347 7.427,0.853 10.933,2.173 3.721,4.297 -8.87,15.666 -10.973,16.88 -0.453,-6.346 -0.213,-12.706 0.04,-19.053 z m -0.786,108.267 c 0.627,-5.76 0.707,-11.547 0.88,-17.333 23.089,9.954 12.76,11.298 15.8,39.893 0.32,4.76 0.88,9.64 -0.08,14.347 -2.013,1.467 -4.32,2.453 -6.493,3.587 -0.067,0.76 -0.173,2.267 -0.227,3.027 2.187,1.413 4.427,2.773 6.693,4.107 -0.52,2.627 0.907,6.267 -1.773,7.987 -4.413,0.413 -8.84,0.107 -13.253,0.133 0.107,-3.84 -1.093,-9.507 4.333,-9.893 0.12,-3.267 -0.28,-8.093 -4.88,-7.267 0.266,-12.868 -1.894,-25.722 -1,-38.588 z m -6.267,-42.907 c -5.933,-1.547 -11.64,-3.8 -17.147,-6.467 4.4,-6.32 9.347,-12.24 14.133,-18.267 1.12,-0.707 2.92,-4.667 3.893,-1.64 0.142,1.472 1.28,19.938 -0.879,26.374 z m -25.253,-76.36 c 6.48,1.613 12.893,3.587 19.12,6.067 -4.613,6.84 -10.48,12.693 -15.547,19.16 -1.307,1.307 -2.44,3.48 -4.573,3.133 -0.907,-7.08 0.093,-14.213 -0.347,-21.307 -0.267,-2.453 0.293,-4.84 1.347,-7.053 z m 25.133,7.747 c 1.867,9.907 0.867,19.947 0.547,29.933 -0.107,3.92 -3.613,6.413 -5.693,9.387 -5.493,6.56 -9.987,14.053 -16.467,19.72 -0.88,0.133 -2.64,0.413 -3.52,0.547 -0.68,-9.72 -1.173,-19.453 -1.427,-29.187 8.867,-10.107 16.72,-21.174 26.56,-30.4 z m -26.267,79.173 c 5.757,0.359 26.051,11.496 27.387,12.427 1.92,20.427 1.627,40.987 0.973,61.48 -2.56,-0.027 -5.093,-0.04 -7.613,-0.053 0.107,3.68 3.333,4.64 6.28,5.56 1.787,2.48 0.507,5.867 0.773,8.72 -8.88,-1.053 -17.853,-0.827 -26.76,-1.267 -0.08,-2.707 -0.133,-5.4 -0.107,-8.107 2.88,-0.227 4.107,-2.493 4.373,-5.133 -1.56,-0.467 -3.094,-0.92 -4.627,-1.36 -0.465,-12.934 -0.639,-61.094 -0.679,-72.267 z m -20.266,-93.4 c 3.667,1.04 7.373,1.987 11.053,3.053 -1.067,6.427 -6.88,10.453 -11.027,14.987 -0.08,-6.013 -0.026,-12.027 -0.026,-18.04 z m 0.053,25.907 c 4.227,-5.093 8.787,-9.933 13.093,-14.973 0.84,11.32 1.747,22.707 0.173,34.027 -4.427,4.827 -8.213,10.24 -13.227,14.507 -0.199,-11.188 -0.092,-22.375 -0.039,-33.561 z m 13.613,44.146 c -3.44,-1.613 -6.773,-3.427 -10.2,-5.04 2.72,-4.547 5.867,-8.84 9.813,-12.427 1.187,5.761 1.707,11.694 0.387,17.467 z m -14.32,32.934 c 1.013,-6.36 0.387,-12.8 0.4,-19.2 20.681,6.757 13.979,-0.372 15.747,79.413 -2.387,0.32 -4.133,1.987 -5.933,3.387 0.067,0.613 0.213,1.84 0.293,2.453 1.88,1.013 3.787,2.067 5.68,3.133 -0.52,2.653 -0.787,5.36 -0.947,8.053 -5,0 -10,0.027 -14.987,-0.067 1.36,-3.92 2.467,-8.68 6.8,-10.32 -0.053,-1.733 -0.107,-3.44 -0.147,-5.16 -2.24,0 -4.48,0.013 -6.667,0.027 0.495,-20.599 -1.452,-41.159 -0.239,-61.719 z M 1564.15,48.853 c 7.08,0.093 13.693,2.933 20.493,4.613 -5.84,8.413 -13.253,15.627 -20.56,22.773 -0.373,-9.146 -2.786,-18.372 0.067,-27.386 z m 6.28,28.054 c 7.053,-6.827 12.693,-14.947 19.933,-21.6 2.24,6.347 -0.36,12.693 0.547,19.147 0.237,12.608 3.459,4.011 -17.987,30.147 -2.44,2.613 -4.773,6.067 -8.747,6.067 -0.52,-7.24 0.653,-14.613 -1.413,-21.68 0.094,-5.028 4.707,-8.455 7.667,-12.081 z m 20.173,41.72 c -6.173,-1.427 -12.827,-2.587 -18.053,-6.28 5.92,-7.12 11.613,-14.493 18.067,-21.147 0.72,9.093 1.12,18.347 -0.014,27.427 z m -26.506,8.853 c 9.6,2.413 18.413,7.147 27.8,10.293 2.133,26.715 0.615,72.499 0.773,86.72 -2.12,-0.147 -4.227,-0.28 -6.307,-0.4 0.373,2.52 1.733,4.573 4.44,4.92 0.707,2.64 1.173,5.333 1.44,8.053 -9.427,0.04 -18.84,0.013 -28.253,0 -0.013,-3.013 -0.013,-6.013 0,-9.013 2.173,-0.56 4.373,-1.12 6.56,-1.733 -0.04,-0.827 -0.133,-2.48 -0.173,-3.307 -1.627,-0.053 -3.227,-0.107 -4.8,-0.173 -0.693,-1.373 -1.4,-2.72 -2.147,-4.04 -0.166,-3.866 -1.681,-75.929 0.667,-91.32 z m -20.08,-83.92 c 3.867,-0.053 7.653,0.84 11.067,2.707 -2.787,4.827 -6.773,8.787 -11.013,12.347 -0.108,-5.014 -0.094,-10.041 -0.054,-15.054 z m 13.106,8.92 c 0.467,10.893 0.08,21.8 0.227,32.707 -4.547,4.4 -8.4,9.48 -13.28,13.533 -0.107,-9.88 -0.093,-19.773 -0.067,-29.667 -0.506,-3.789 10.936,-14.862 13.12,-16.573 z m -0.266,55.187 c -3.147,-0.773 -6.013,-2.347 -9.04,-3.373 1.907,-4.84 5.453,-8.84 9.347,-12.2 0.226,5.173 0.453,10.413 -0.307,15.573 z m -13.134,12.52 c 4.16,0.587 8.147,1.987 11.973,3.733 4.16,6.293 3.08,13.987 2.973,21.107 -0.384,8.586 3.068,54.734 -0.56,75.293 -1.907,-0.12 -3.787,-0.227 -5.64,-0.333 -0.133,1.96 -0.2,3.92 -0.293,5.867 2.147,0.827 4.28,1.64 6.467,2.44 0,2.413 0.107,4.84 -0.12,7.253 -1.467,2.267 -4.4,1.347 -6.613,1.613 -2.64,-0.32 -6.16,0.893 -7.747,-1.88 -0.267,-2.053 -0.227,-4.12 -0.267,-6.173 3.32,-0.16 8.32,-0.933 7.72,-5.413 0.52,-4.067 -5.12,-3.227 -7.667,-3.52 -0.72,-9.653 0.2,-19.373 -0.973,-28.987 -0.627,-5.587 0.547,-11.173 0.347,-16.76 0.08,-10.24 -0.707,-20.453 -0.613,-30.68 0.84,-7.827 1.213,-15.694 1.013,-23.56 z m -34.28,-79.147 c -0.04,-1.933 0.92,-3.667 1.48,-5.48 7.24,1.213 14.347,3.107 21.507,4.787 -2.4,3.393 -18.404,20.592 -22.6,23.707 -0.413,-7.667 -0.467,-15.347 -0.387,-23.014 z m 0.174,32.36 c 4.745,-8.02 26.567,-29.936 27.573,-30.787 0.672,29.585 4.617,18.153 -17.813,44.347 -2.813,3.187 -5.28,7.573 -10,7.84 0.133,-7.133 -0.48,-14.307 0.24,-21.4 z m 27.76,27.36 c -6.693,-0.373 -13.133,-2.187 -19.493,-4.147 2.67,-5.146 18.054,-21.206 19.48,-22.507 0.999,8.827 1.066,17.827 0.013,26.654 z m -26.587,8.04 c 1.764,0.426 25.504,7.08 27.853,9.787 1.869,29.004 1.184,93.717 0.32,104.093 -1.853,0.56 -3.827,0.413 -5.693,0.573 0.187,1.987 0.4,3.987 0.613,5.987 1.573,-0.333 3.173,-0.667 4.787,-1.013 -0.013,2.947 -0.013,5.88 0.013,8.827 -9.467,0.293 -18.893,-0.2 -28.307,-1.053 0.267,-3.227 0.787,-6.44 1.28,-9.64 0.907,-0.307 2.72,-0.92 3.627,-1.227 -0.747,-1.387 -1.853,-2.333 -3.347,-2.8 -3.99,-8.219 -4.129,-106.859 -1.146,-113.534 z m -20.12,-77.32 c 3.28,0.373 6.533,1.04 9.747,1.88 -0.773,5.52 -6.307,8.333 -9.733,12.173 -0.067,-4.68 -0.067,-9.36 -0.014,-14.053 z m 6.307,14.547 c 2.107,-1.693 3.56,-4.853 6.52,-5.053 0.389,2.909 1.545,28.587 -0.587,30.92 -3.827,4.307 -7.547,8.773 -12.16,12.28 -0.607,-39.314 -0.779,-29.717 6.227,-38.147 z m 5.92,46.8 c -2.813,-0.893 -5.627,-1.76 -8.36,-2.8 2.24,-4.12 4.68,-8.533 9.12,-10.64 0.333,4.466 1.04,9.173 -0.76,13.44 z m -12.414,9.253 c 4.333,1.813 10.44,1.68 13,6.227 3.413,9.267 -0.067,19.24 1.747,28.773 2.013,11.067 -0.187,22.2 -0.067,33.307 -0.28,9.987 2.387,19.987 0.493,29.92 -1.2,6.667 -0.667,13.48 -0.72,20.213 -2.813,-3.68 -6.667,-0.307 -6.88,3.32 2.147,1.36 4.427,2.547 6.8,3.507 -0.267,2.8 -0.453,5.613 -0.707,8.413 -3.973,0.027 -7.947,0.267 -11.88,-0.2 -2.64,-1.653 -1.307,-5.12 -1.68,-7.667 2.494,-0.28 5.013,-0.587 7.52,-0.973 -0.04,-1.96 -0.147,-3.933 -0.307,-5.88 -2.053,-1.413 -4.813,-0.587 -7.12,-0.88 -0.013,-1.001 -2.739,-84.645 -0.199,-118.08 z m -34.44,-73.84 c 0.88,-1.013 1.773,-2.013 2.68,-3.027 6.96,2.147 14.28,2.827 21.413,4.32 -7.533,8.8 -15.453,17.307 -24.013,25.107 -0.226,-8.8 -0.12,-17.6 -0.08,-26.4 z m 4.907,28.493 c 8.12,-7.627 14.747,-16.68 23.08,-24.067 2.142,21.926 -0.709,21.311 -4.36,25.4 -7.56,7.6 -14.36,15.92 -22.32,23.107 -2.16,-5.04 -0.92,-10.84 -1.36,-16.2 -0.48,-3.626 2.773,-5.906 4.96,-8.24 z M 1484.35,87 c -7.427,0.373 -14.493,-1.947 -21.573,-3.773 6.787,-7.853 13.587,-15.72 21.267,-22.72 0.813,8.8 0.839,17.68 0.306,26.493 z m -28.253,8.853 c 0.347,-0.747 1.04,-2.253 1.4,-3 9.173,3.013 18.88,4.68 27.747,8.44 1.113,6.668 2.339,94.473 0.347,122.013 -2.707,-0.147 -5.387,-0.28 -8.053,-0.44 0,0.8 -0.013,2.4 -0.013,3.213 0.827,-0.08 2.467,-0.24 3.293,-0.307 -0.24,2.333 -0.427,4.68 -0.64,7.027 0.893,0.013 2.693,0.027 3.587,0.04 -0.093,-2.16 -0.133,-4.307 -0.12,-6.453 2.84,2.24 1.347,6.253 1.747,9.347 -9.387,0.013 -18.76,0 -28.134,0 -0.093,-2.6 -0.28,-5.213 -0.013,-7.8 2.267,-1.853 5.587,-2.973 5.587,-6.44 -1.107,0.107 -3.307,0.32 -4.413,0.427 -4.067,-4.44 -1.947,-10.813 -2.88,-16.213 -0.419,-2.561 -1.616,-71.283 0.558,-109.854 z m -8.974,-70.586 c -2.96,3.493 -5.92,7.053 -9.653,9.773 -0.16,-3.84 -0.16,-7.667 -0.147,-11.507 3.32,0.054 6.84,-0.066 9.8,1.734 z m -9.76,17.36 c 3.747,-4.293 7.56,-8.533 11.533,-12.64 1.12,1.253 1.933,2.707 1.547,4.48 -0.9,21.659 1.773,25.052 -2.373,29.32 -3.28,3.427 -6.467,7.027 -10.44,9.667 -0.6,-10.254 -0.187,-20.547 -0.267,-30.827 z m 10.76,38.413 c -2.173,-0.813 -4.227,-1.84 -6.32,-2.76 2.32,-3.427 4.693,-6.827 7.653,-9.76 1.587,3.92 1.881,9.427 -1.333,12.52 z m -10.773,7.907 c 3.693,0.213 8.053,-0.293 11,2.493 6.107,5.93 1.761,61.423 4.12,108.387 -0.533,6.267 -1.08,12.533 -1.267,18.84 -2.347,-0.093 -4.84,-0.493 -6.547,1.427 -2.12,-0.173 -4.24,-0.333 -6.307,-0.48 -2.272,-24.044 -1.563,-102.992 -0.999,-130.667 z m 13.347,137.586 c -0.013,3.107 -0.013,6.227 -0.013,9.347 -4,-0.56 -8.013,-1.04 -12.027,-1.4 -0.013,-2.093 0,-4.187 0.013,-6.28 2.28,-0.88 4.64,-1.813 6.147,-3.867 1.946,0.707 3.906,1.454 5.88,2.2 z M 1423.363,20.12 c 1.053,0.373 3.173,1.133 4.227,1.507 -1.653,2.409 -19.457,22.401 -24.8,25.52 -0.307,-9.12 0.013,-18.253 -0.187,-27.387 6.574,-3.213 13.827,0.853 20.76,0.36 z m -20.24,34.8 c 9.267,-9.973 17.907,-20.76 28.507,-29.387 0.173,5.413 0.92,10.933 -0.067,16.293 -4.04,4.92 -9.013,8.973 -13.2,13.747 -5.093,5.133 -9.173,11.413 -15.44,15.24 0.014,-5.266 -0.866,-10.733 0.2,-15.893 z m 28.04,21.48 c -7.613,-0.147 -15.2,-0.72 -22.613,-2.507 6.507,-9.333 15.187,-17 23.253,-24.96 0.014,9.134 1.014,18.427 -0.64,27.467 z m -28.546,7.427 c 0.733,-0.4 2.173,-1.2 2.907,-1.6 8.853,0.667 17.32,3.92 26.2,4.453 2.636,8.117 1.113,92.713 2.627,114.373 -0.467,7.013 -2.094,13.947 -1.573,21.027 -1.613,0.147 -3.213,0.307 -4.8,0.467 0.013,0.813 0.04,2.44 0.053,3.253 4.747,0.627 4.533,5.387 4.333,9.093 -10.634,-1.169 -9.026,1.006 -28.373,-0.573 0,-2.453 0,-4.92 0.04,-7.373 1.733,-1.133 4.627,-1.8 4.04,-4.507 -1.373,-1.747 -3,-3.24 -4.547,-4.787 -2.395,-15.378 -1.51,-120.735 -0.907,-133.826 z m -17.294,-67.054 c 2.8,0.147 5.56,0.787 8.053,2.147 -2.467,2.507 -4.813,5.133 -7.453,7.44 -3.653,-1.173 -0.986,-6.72 -0.6,-9.587 z m 11.294,5.307 c 1.173,10.28 0.693,20.68 0.56,31 -2.76,4.973 -7.547,8.64 -11.6,12.56 -3.733,-35.251 -2.889,-28.226 11.04,-43.56 z m 0.8,48.76 c -2.76,0.307 -5.533,0.213 -8.28,-0.04 2.36,-2.773 3.827,-7.893 7.88,-8.24 0.333,2.747 0.306,5.52 0.4,8.28 z m -12.32,7.28 c 3.187,0.52 6.36,1.227 9.56,1.76 5.64,7.12 2.613,16.907 3.173,25.24 1.129,9.502 1.87,102.137 -0.253,113.12 -2.227,0.173 -4.573,0.013 -6.453,1.373 -1.906,0.08 -3.8,0.12 -5.667,0.16 -1.464,-10.663 -2.373,-133.324 -0.36,-141.653 z m 12.2,156.48 c -3.68,-0.107 -7.347,-0.187 -11.013,-0.227 1.12,-1.707 2.053,-3.693 4.053,-4.56 -0.12,-3.24 2.333,-5.213 5.44,-5.173 2.306,2.893 2,6.533 1.52,9.96 z m -47.76,-220 c 8.507,-0.227 17.253,-1.053 25.48,1.733 -2.054,3.282 -20.744,23.855 -25.587,27.173 -0.12,-9.626 -0.267,-19.279 0.107,-28.906 z m 2.8,33.467 c 9.253,-8.693 17.027,-18.813 26.307,-27.493 0.12,4.453 0.6,9 -0.213,13.427 -2.376,2.972 -24.865,28.116 -28.68,28.253 -0.681,-4.774 -1.508,-10.627 2.586,-14.187 z m 26.253,20.773 c -4.853,1.36 -9.827,0.427 -14.733,0.12 -0.64,-0.507 -1.92,-1.493 -2.56,-1.987 -1.973,1.693 -4.413,0.96 -6.667,0.587 1.874,-3.94 22.906,-25.794 23.907,-26.707 0.746,9.307 0.186,18.667 0.053,27.987 z m -29.28,7.187 c 1.4,-0.947 2.827,-1.867 4.267,-2.773 8.493,3.227 18,1.307 26.293,5.187 0.666,6.581 2.99,120.974 0.027,143.92 -2.227,0.053 -4.427,0.107 -6.6,0.16 0.067,0.8 0.2,2.413 0.28,3.227 5.053,-0.053 5.467,4.973 6.347,8.773 -9.747,0.52 -19.507,-0.333 -29.253,-0.133 -0.013,-2.52 -0.013,-5.027 0,-7.533 1.72,-0.76 3.44,-1.573 5.16,-2.387 -0.04,-0.693 -0.107,-2.08 -0.133,-2.76 -1.64,-0.64 -3.76,-0.693 -4.707,-2.373 -3.365,-13.491 -1.427,-135.945 -1.681,-143.308 z m -17.173,-61.494 c 2.347,-0.067 4.707,-0.107 7.093,-0.107 -2,2.773 -4.307,5.36 -7.187,7.24 -0.026,-2.373 0.014,-4.759 0.094,-7.133 z m -0.107,15.08 c 4.387,-3.507 6.96,-8.88 11.827,-11.813 0.307,10.787 0.107,21.573 0.107,32.373 -3.84,3.76 -7.08,8.16 -11.493,11.293 -0.654,-10.613 -0.468,-21.239 -0.441,-31.853 z m 11.92,28.44 c -0.053,2.507 -0.147,5 -0.253,7.493 -2.027,0.16 -4.053,0.333 -6.04,0.507 1.613,-3.013 3.56,-5.88 6.293,-8 z m -11.427,15.64 c 3.053,-1.147 6.613,-0.893 9.76,-0.2 3.093,2.92 2.16,7.733 2.68,11.56 0.01,1 2.564,121.94 0.32,132.4 -4.48,-1.173 -7.44,2.787 -11.72,2.507 -1.833,-9.377 -3.001,-133.6 -1.04,-146.267 z M 1344.19,234.4 c -3.627,0.013 -7.253,0.027 -10.853,0.027 -0.013,-2.12 -0.013,-4.213 0,-6.32 3.533,-0.173 7.973,-5.267 10.68,-1.173 0.786,2.386 0.133,4.986 0.173,7.466 z m -15.293,-26.667 c -1.56,4.707 -1.4,9.547 -1.227,14.453 -2.067,0.147 -4.107,0.293 -6.133,0.44 v 3.147 c 4.813,0.093 6.147,4.64 6.733,8.587 -8.987,0.613 -17.987,0.013 -26.973,0.12 -0.8,-2.413 -1.293,-4.907 -1.427,-7.44 2.32,-0.653 2.733,-2.813 3.133,-4.867 -1.373,-0.373 -2.747,-0.733 -4.093,-1.093 -3.97,-13.072 -2.945,-133.236 -2.693,-147.973 2.848,-2.299 -0.757,-4.161 29.053,-1.293 5.23,8.716 1.757,55.666 3.627,135.919 z m -2.76,-144.466 c -4.173,2.627 -9.507,1.893 -14.173,1.507 -3.52,-1.347 -7.187,-1.987 -10.92,-1.107 5.747,-8.36 13.76,-14.747 20.04,-22.653 1.467,-1.92 3.307,-3.493 5.48,-4.56 -0.147,8.906 0.786,17.999 -0.427,26.813 z m 0.506,-34.76 c -9.933,9.907 -18.72,20.92 -29.267,30.213 -0.053,-3.027 -0.053,-6.053 -0.027,-9.08 6.358,-5.838 22.846,-27.271 29.213,-30.64 0.095,3.173 0.108,6.333 0.081,9.507 z M 1296.31,14.68 c 3.547,-2.827 9.107,-2.92 13.627,-2.8 3.893,2.56 8.773,0.827 13.147,1.387 -1.067,3.053 -3.587,5.44 -7.027,4.627 -0.013,1 -0.053,3.013 -0.08,4.013 -5.747,6.293 -12.587,11.44 -18.253,17.827 -1.686,-4.149 -2.334,-2.786 -1.414,-25.054 z m -16.213,11.027 c 3.76,-3.187 6.747,-7.16 10.493,-10.373 0.293,11.16 0.853,22.373 0.013,33.52 -3.92,2.493 -6.88,6.107 -10.467,9 -0.239,-10.721 -0.186,-21.441 -0.039,-32.147 z m 9.44,35.546 c -1.6,-0.92 -1.52,-1.867 0.227,-2.853 1.599,0.92 1.533,1.867 -0.227,2.853 z m -9.56,12.027 c 3.187,-2.147 6.827,-3.307 10.72,-3.027 3.647,10.375 3.029,136.51 1.133,147.387 -1.587,-0.12 -3.147,-0.24 -4.707,-0.36 -0.56,0.613 -1.68,1.827 -2.24,2.44 -0.827,0.013 -2.493,0.027 -3.333,0.027 -0.35,-1.88 -2.981,-68.722 -1.573,-146.467 z m 5.146,161.613 c 2.267,-1.413 4.733,-2.507 7.24,-3.48 0.44,4.4 -4.413,3.24 -7.24,3.48 z M 1273.55,56.853 c 0.36,0.84 1.067,2.507 1.427,3.333 -5.267,-3.28 -9.027,-8.293 -13.92,-11.96 4.12,-5.027 8.053,-10.493 13.347,-14.36 0.466,7.654 0.479,15.414 -0.854,22.987 z m -15.453,-5.4 c 3.053,3.467 6.653,6.52 8.947,10.6 -5.84,1.787 -11.107,-0.84 -16.547,-2.493 2.493,-2.733 5.013,-5.453 7.6,-8.107 z m -8.227,-1.693 c -0.787,2.733 -2.12,5.533 -5.467,4.853 -0.173,-5.907 -0.627,-11.8 -0.293,-17.707 8.869,8.071 10.268,9.628 5.76,12.854 z m -5.867,-35.24 c 9.32,-0.613 18.573,-2.027 27.96,-1.493 3.922,9.384 2.939,6.058 -1.747,16.96 -3.053,3.107 -6.067,6.32 -9.827,8.573 -1,1.267 -1.933,2.56 -2.96,3.787 -4.76,-3.627 -9.093,-7.96 -12.973,-12.507 -1.053,-5 -0.226,-10.24 -0.453,-15.32 z m -0.026,58.093 c 8.813,-1.44 17.827,-0.84 26.693,-2.2 1.16,1.04 2.373,2.04 3.467,3.187 3.883,14.77 0.411,114.637 2.813,134.147 -0.72,4 -2.4,7.827 -1.88,12.013 -1.08,-0.013 -3.227,-0.027 -4.293,-0.027 -0.08,-0.667 -0.213,-2.013 -0.293,-2.68 -1.707,0.013 -3.4,0.027 -5.067,0.04 0.293,5.253 -0.773,10.4 -1.653,15.547 -0.96,1.027 -1.893,2.053 -2.827,3.08 -4.68,-0.053 -9.373,0.267 -14.027,-0.133 -2.693,-1.533 -1.213,-5.12 -1.667,-7.627 1.787,-0.68 3.587,-1.387 5.4,-2.067 -0.013,-0.747 -0.027,-2.24 -0.04,-2.987 -1.547,-0.32 -3.04,-0.76 -4.48,-1.32 -1.027,-4.107 -2.92,-8.613 -1.107,-12.76 -0.551,-2.086 -3.165,-81.816 -1.039,-136.213 z m -5.32,-56.68 c -0.253,1.96 -0.787,3.867 -1.267,5.773 -2.413,-2 -4.747,-4.227 -5.933,-7.2 2.386,0.254 5.6,-1.053 7.2,1.427 z m -10.587,4.574 c 3.787,3.013 7.52,6.267 10.32,10.267 0.587,8.587 0.533,17.32 -0.587,25.88 -10.19,-11.951 -10.307,-1.307 -9.733,-36.147 z m 5.013,41.013 c -0.093,2.533 -3.187,0.72 -4.72,0.92 -0.067,-1.947 -0.107,-3.88 -0.107,-5.827 1.881,1.32 3.787,2.774 4.827,4.907 z m -5.066,32.787 c -0.027,-7.013 -1.627,-14.6 1.747,-21.107 2.92,-0.2 5.84,-0.44 8.773,-0.587 2.348,10.351 1.487,144.653 1.48,145.653 -2.6,0.467 -5.307,0.867 -7.413,2.573 -0.827,0.08 -2.467,0.24 -3.293,0.32 0.027,-7.2 -2.467,-14.2 -1.387,-21.413 0,-16.178 -1.3,-86.414 -1.293,-86.707 -0.574,-6.332 1.892,-12.412 1.386,-18.732 z m 10.8,141.413 c -3.147,0 -6.28,0.013 -9.4,0.08 0.733,-2.16 1.173,-4.4 1.493,-6.653 1.92,-0.72 3.84,-1.48 5.893,-1.853 2.654,2.026 1.774,5.559 2.014,8.426 z m -17.36,-219.973 c 1.36,7.933 1.533,16.173 0.267,24.12 -4.533,-3.796 -16.523,-15.819 -19.893,-22.56 6.572,-0.2 12.986,-2.254 19.626,-1.56 z m -29.414,2.16 c 4.863,3.566 25.305,25.253 28.493,29.173 2.787,3.147 1.333,7.587 1.493,11.373 -0.373,1.28 0.453,3.347 -1.187,3.947 -9.867,-9.24 -19.027,-19.213 -28.813,-28.507 -0.052,-5.333 -0.079,-10.666 0.014,-15.986 z m 21.934,45.453 c -5.72,1.333 -11.587,1.253 -17.4,1.587 -1.027,-1.653 -2.8,-2.32 -4.533,-2.907 -0.067,-7.053 -0.107,-14.107 0.053,-21.16 7.68,7.067 15.2,14.427 21.88,22.48 z m -22.014,13.787 c 8.08,-2.133 16.64,-0.747 24.64,-3.32 2.84,-1.853 4.72,1.213 6.6,2.853 -0.347,2.347 0,4.693 0.693,6.947 -1.76,11.147 0.587,22.28 0.107,33.453 0.161,112.821 -1.4,106.653 -1.4,106.653 -1.8,0 -3.587,0.013 -5.347,0.013 0.12,2.28 0.267,4.56 0.453,6.84 1.853,-0.28 3.56,-1.04 5.107,-2.147 -0.12,2.427 -0.16,4.853 -0.187,7.293 -9.76,0.013 -19.52,0.147 -29.28,0.107 -0.067,-2.693 -0.12,-5.387 -0.133,-8.067 1.733,-0.2 3.493,-0.373 5.267,-0.56 0.027,-1.48 0.08,-2.96 0.16,-4.44 -0.947,0.04 -2.813,0.093 -3.76,0.133 -6.817,-11.39 -1.012,-23.514 -4.2,-88.467 0.01,-0.999 -0.084,-48.525 1.28,-57.291 z m -6.253,-57.854 c 2.293,2.027 -0.067,5.013 -0.733,7.24 -1.64,-1.507 -3.347,-2.973 -4.747,-4.707 -1.693,-2.973 4.04,-4.759 5.48,-2.533 z m -9.693,5.294 c 3.787,2.947 7.44,6.107 10.427,9.893 -1.027,8.573 0.387,17.213 -1.067,25.773 -3.293,-2.733 -6.72,-5.453 -9.107,-9.04 -0.667,-8.84 -0.08,-17.746 -0.253,-26.626 z m 0.093,34.573 c 2.227,2.133 4.24,4.507 5.693,7.24 -2.013,-0.267 -3.987,-0.613 -5.933,-1.08 0.067,-2.053 0.147,-4.107 0.24,-6.16 z m -0.08,24.533 c -0.08,-2.173 1.773,-3.64 2.867,-5.307 2.587,-0.04 5.2,-0.107 7.827,-0.133 0.01,1.005 1.943,129.663 0.667,141.04 -2.147,0.693 -4.427,0.747 -6.613,1.053 -0.733,1.68 -2,2.413 -3.813,2.16 -1.188,-3.352 -2.351,-113.026 -0.935,-138.813 z m 10.667,152.174 c -3.267,-0.027 -6.533,-0.08 -9.773,-0.187 2.093,-3.893 5.893,-6.4 9.653,-8.533 0.066,2.906 0.093,5.813 0.12,8.72 z M 1167.51,19.92 c 0.947,0.92 1.88,1.88 2.8,2.853 0.28,7.267 0.453,14.52 0.28,21.787 -4.52,-1.6 -7.067,-5.947 -10.453,-9.04 -3.813,-4.28 -8.6,-7.8 -11.387,-12.893 6.36,-0.027 12.533,-1.627 18.76,-2.707 z m -28.56,8.533 c 0.467,-1.773 0.933,-3.533 1.48,-5.293 5.102,3.086 26.581,25.518 29.427,29.4 1.44,5.12 0.467,10.587 -0.44,15.733 -5.468,-3.575 -28.328,-26.089 -30.44,-30.173 -0.347,-3.2 0.813,-6.453 -0.027,-9.667 z m 1.213,18.507 c 2.755,2.072 17.636,16.83 21.133,21.36 -4.013,0.373 -8.053,0.64 -11.88,1.867 -1.867,-0.147 -3.733,-0.267 -5.573,-0.36 -1.28,-0.88 -2.547,-1.747 -3.8,-2.6 0.72,-6.76 -1.573,-13.654 0.12,-20.267 z m -1.213,39.893 c 5.067,-4.813 13.107,-2.173 19.08,-5.427 11.601,-0.863 12.322,-2.818 13.56,3.467 1.293,5.36 -0.64,10.747 -0.48,16.147 1.16,15.067 1.533,30.227 0.88,45.347 0.323,82.738 1.333,64.391 -1.24,78.627 -2.333,0.08 -4.667,0.173 -6.973,0.267 0.653,2.147 1.36,4.28 2.067,6.413 1.6,-0.107 3.2,-0.213 4.827,-0.32 -0.013,1.893 -0.013,3.787 0,5.693 -9.68,-0.147 -19.387,0.267 -29.053,-0.16 -2.307,-1.347 -1.44,-4.213 -1.787,-6.387 2.253,-1.987 4.907,-3.4 7.973,-3.533 0.027,-0.653 0.107,-1.973 0.147,-2.627 -3.067,-0.187 -7.067,-0.56 -8.4,-3.76 -1.146,-7.941 -0.783,-132.522 -0.601,-133.747 z m -10.733,-61.546 c 1.747,-0.12 3.493,-0.227 5.253,-0.333 -0.027,2.693 -0.107,5.387 -0.24,8.08 -1.787,-1.453 -3.56,-2.947 -5.293,-4.44 0.066,-0.827 0.213,-2.481 0.28,-3.307 z m 5,41.28 c -2.827,-2.227 -5.347,-4.773 -7.88,-7.307 -1.947,-9.227 -0.933,-18.8 -1.253,-28.173 11.751,7.234 9.71,7.942 9.133,35.48 z m -4.147,5.906 c -3.493,2.467 -4.48,-2.92 -4.227,-5.44 2.52,-0.84 3.907,3.347 4.227,5.44 z m -5.893,55.4 c 3.478,-24.433 -5.045,-43.931 11.893,-41.587 0.011,6.589 0.901,126.081 0.227,135.573 -2.093,-0.147 -4.187,-0.28 -6.253,-0.387 -1.013,0.667 -2.053,1.28 -3.12,1.84 -2.871,-5.554 -0.993,-9.761 -1.733,-75.48 -0.214,-6.665 -2.081,-13.279 -1.014,-19.959 z m 11.506,109.187 h -9.333 c -0.027,-1.76 -0.04,-3.507 -0.04,-5.253 6.97,-2.277 4.124,-1.017 9.32,-3.147 0.027,2.8 0.027,5.6 0.053,8.4 z M 1118.55,27.84 c 0.187,8.04 0.293,16.093 -0.227,24.12 -7.12,-6.867 -15.187,-13.067 -20.867,-21.2 7.027,-1.04 13.894,-3.68 21.094,-2.92 z m -30.667,4.307 c 0.893,-0.08 2.693,-0.227 3.587,-0.307 35.825,33.808 25.956,26.557 26.907,42.013 -0.88,0.293 -2.627,0.893 -3.507,1.187 -5.349,-4.256 -25.852,-25.206 -26.64,-26.213 -1.213,-5.427 -0.693,-11.16 -0.347,-16.68 z m 0.36,46.106 c -0.413,-7.413 -0.24,-14.84 -0.213,-22.253 7.133,5.92 13.987,12.48 19.573,19.92 -6.36,1.413 -12.8,3.147 -19.36,2.333 z m 10.6,10.387 c -2.787,0.4 -5.56,0.827 -8.333,1.133 -0.667,0.44 -1.987,1.32 -2.653,1.76 0.133,-0.707 0.413,-2.107 0.56,-2.813 3.413,-0.253 6.853,-0.573 10.24,-1.227 z m -11.24,8.707 c 30.925,-8.213 28.636,-7.649 32.28,-5.493 -0.118,126.482 1.858,124.908 -1.013,133.653 -1.733,0.08 -3.453,0.173 -5.173,0.267 -0.107,0.8 -0.32,2.413 -0.44,3.227 1.827,0.627 3.64,1.227 5.507,1.787 0.64,2.067 1.147,4.16 1.6,6.28 -10.28,2.04 -20.773,1.16 -31.173,1.333 -0.52,-2.573 -0.987,-5.147 -1.387,-7.747 2.853,-0.387 5.36,-1.587 6.093,-4.627 -1.787,-0.147 -3.56,-0.267 -5.32,-0.373 -3.142,-18.317 -0.983,-127.306 -0.974,-128.307 z m -6.266,-62.987 c -0.013,2.387 -0.013,4.787 -0.027,7.173 -2.533,-1.773 -5.6,-3.507 -5.707,-7 1.907,-0.066 3.814,-0.12 5.734,-0.173 z m -0.054,13.867 c 0.04,9.227 0.213,18.467 -0.12,27.693 -2.76,-2.2 -5.307,-4.667 -7.813,-7.147 -0.013,-9.387 -0.027,-18.787 -0.013,-28.187 2.693,2.494 5.293,5.094 7.946,7.641 z m -4.226,30.853 c -0.027,0.693 -0.08,2.093 -0.12,2.8 -0.76,0 -2.293,0.013 -3.067,0.027 -0.24,-1.653 -0.48,-3.293 -0.693,-4.933 1.28,0.706 2.573,1.399 3.88,2.106 z m 5.613,20.013 c -0.013,1 1.146,111.19 0.333,122.907 -0.747,0.067 -2.24,0.227 -2.987,0.307 -2.947,-0.267 -3.933,4.547 -7.013,3.24 -0.907,-29.92 0.147,-59.867 -1.013,-89.773 4.022,-24.039 -5.206,-36.507 10.68,-36.681 z m -3.027,132.467 c 0.76,-0.4 2.28,-1.187 3.027,-1.587 -0.013,2.933 -0.013,5.88 -0.04,8.813 -4.333,0.267 -2.467,-4.559 -2.987,-7.226 z M 1069.19,26.68 c 0.16,0.613 0.493,1.84 0.653,2.44 -5.4,1.707 -11.267,1.147 -16.84,0.827 5.347,-1.254 10.68,-2.8 16.187,-3.267 z m -2.693,10.28 c 0.333,8.187 0.12,16.373 0.173,24.56 -7.04,-6.4 -13.747,-13.187 -20.24,-20.147 6.587,-1.893 13.24,-3.653 20.067,-4.413 z m -30.267,6.893 c 1.493,-0.547 3.013,-1.093 4.547,-1.627 8.4,8.773 16.987,17.373 25.507,26.027 0.907,5.187 0.173,10.533 0.427,15.787 -1.6,0.84 -3.173,1.693 -4.733,2.533 -7.76,-8.147 -15.813,-15.987 -23.667,-24.027 -4.533,-3.773 -0.76,-10.36 -3.453,-15.107 0.439,-1.199 0.892,-2.399 1.372,-3.586 z m 1.48,55.734 c 3.88,0.787 7.76,1.587 11.64,2.467 -1.893,-0.16 -3.773,-0.347 -5.64,-0.547 -2.467,1.467 -5.013,2.813 -7.867,3.253 0.587,-0.613 1.76,-1.827 2.347,-2.44 -0.12,-0.68 -0.36,-2.053 -0.48,-2.733 z m -1.333,-7.947 c -0.653,-8.08 -0.307,-16.2 -0.347,-24.293 6.8,6.44 13.493,13.027 19.693,20.053 -6.213,2.2 -12.84,3.28 -19.346,4.24 z m 26.6,1.973 c -3.187,0.96 -6.48,1.507 -9.787,1.733 2.92,-1.946 6.373,-2.146 9.787,-1.733 z m -27.334,19.734 c 10.227,-3.84 20.627,-7.453 31.28,-9.947 2.427,10.64 -0.293,21.693 2.4,32.293 -3.513,101.866 5.691,89.936 -9.347,92.373 0.053,0.773 0.16,2.307 0.213,3.08 1.6,0.213 3.2,0.427 4.813,0.653 0.907,1.907 1.84,3.8 2.787,5.707 -3.253,3.44 -7.813,1.987 -11.8,1.24 -6.667,1.453 -13.507,0.973 -20.267,0.96 0.52,-2.627 1.227,-5.213 1.827,-7.827 2.133,-0.613 4.253,-1.24 6.4,-1.88 -0.013,-0.827 -0.027,-2.48 -0.027,-3.307 h -4.973 c -1.12,-1.173 -2.227,-2.347 -3.333,-3.52 -0.564,-6.765 -1.475,-100.897 0.027,-109.825 z m -6.266,-68.64 c -0.067,2.56 -0.133,5.107 -0.24,7.667 -2.267,-1.427 -4.013,-3.44 -5.547,-5.587 1.907,-0.72 3.84,-1.427 5.787,-2.08 z m -7.827,7.786 c 3.133,1.72 5.413,4.493 7.773,7.12 -0.027,9.68 0.107,19.373 -0.08,29.053 -2.88,-2.64 -6.587,-5.053 -7.787,-8.933 -0.266,-9.066 -0.213,-18.173 0.094,-27.24 z m 4.653,41.16 c -0.52,1.253 -2.013,1.533 -3,2.24 -0.307,-1.92 -0.56,-3.84 -0.733,-5.773 1.253,1.147 2.547,2.28 3.733,3.533 z m -4.773,31.427 c -0.467,-3.68 2.16,-6.507 4.013,-9.347 1.733,-0.133 3.48,-0.253 5.24,-0.36 -0.347,7.253 0.093,14.48 1.307,21.64 -2.605,21.356 0.987,65.605 -0.88,86.147 -3.6,-0.653 -6.747,0.72 -9.16,3.333 -1.555,-27.837 -0.517,-100.405 -0.52,-101.413 z m 9.253,114.667 c -2.68,0.12 -5.36,0.187 -8.027,0.16 0,-1.813 0,-3.64 0.013,-5.453 1.587,-0.067 3.187,-0.12 4.8,-0.16 1.053,-1.027 2.12,-2.027 3.2,-3.027 10e-4,2.826 10e-4,5.653 0.014,8.48 z m -12.493,-202.6 c 0.013,0.92 0.04,2.747 0.053,3.653 -4.84,0.747 -9.733,0.267 -14.587,-0.093 -0.533,0.307 -1.627,0.933 -2.16,1.24 -0.04,-0.4 -0.12,-1.187 -0.147,-1.587 5.708,-0.533 11.068,-2.973 16.841,-3.213 z m -3.4,11.586 c 0.96,8.293 0.173,16.653 0.107,24.96 -6.6,-5.84 -12.573,-12.36 -18.747,-18.627 -0.027,-0.347 -0.053,-1.04 -0.08,-1.373 6.173,-1.88 12.387,-3.706 18.72,-4.96 z m -30.787,8.28 c 2.08,-0.56 4.16,-1.08 6.293,-1.533 29.173,32.794 24.644,20.972 25.76,34.813 -0.293,2.68 0.64,5.973 -1.373,8.133 -1.573,1.973 -4.36,1.067 -6.507,1.427 C 1000.229,91.2 992.283,82.56 984.456,73.826 983.337,68.36 984.39,62.587 984.003,57.013 Z m 25.174,52.48 c -1.733,1.48 -7.48,0.947 -3.573,-1.68 1.213,-0.826 3.986,-0.12 3.573,1.68 z m -24.8,-27.4 c 7.093,5.693 13.267,12.627 18.84,19.8 -5.787,1.893 -11.733,4.76 -17.96,3.373 -0.24,-0.44 -0.72,-1.32 -0.96,-1.76 -0.614,-7.119 -0.414,-14.306 0.08,-21.413 z m 2.48,33.96 c 1.587,-0.2 3.213,-0.227 4.853,-0.053 0.2,0.827 0.587,2.493 0.787,3.32 2.44,-0.773 4.907,-1.493 7.4,-2.173 -5.24,1.973 -10.427,4.747 -16.173,4.573 1.359,-1.707 2.373,-3.613 3.133,-5.667 z m -2.84,15.88 c 1.001,-0.418 26.503,-10.777 32,-11.6 1.045,21.401 2.373,87.766 0.453,108.56 -2.36,0.16 -4.707,0.307 -7.04,0.453 -0.013,0.827 -0.067,2.48 -0.08,3.307 2.213,0.68 4.44,1.347 6.693,1.987 0.04,1.72 0.08,3.453 0.147,5.173 -5.785,2.024 -29.655,1.24 -30.667,1.12 -2.173,-1.36 -1.347,-4.187 -1.747,-6.307 2.253,-1.227 4.56,-2.387 6.92,-3.453 -0.08,-0.747 -0.213,-2.24 -0.293,-2.987 -1.733,0.027 -3.467,0.067 -5.187,0.107 -3.582,-9.57 -1.796,-86.12 -1.199,-96.36 z M 973.59,60.227 c 0.933,-0.2 2.827,-0.613 3.76,-0.813 -0.027,2.093 -0.067,4.2 -0.12,6.293 -1.307,-1.694 -4.653,-2.894 -3.64,-5.48 z m -2.813,7.106 c 2.267,1.947 4.427,4.027 6.533,6.16 -0.347,10.253 0.933,20.52 0.053,30.747 -7.764,-5.947 -7.312,-4.144 -6.586,-36.907 z m 0.28,40.347 c 1.987,-1.467 4.04,2.107 2.173,3.4 -2.013,1.32 -3.92,-2.067 -2.173,-3.4 z m -0.44,37.387 c -0.72,-4.173 1.547,-7.787 4.32,-10.667 h 3.76 c 0,0 1.667,64.835 0.52,91.04 -3.32,0.067 -7.6,-1 -8.573,3.333 -1.38,-24.74 -0.027,-83.703 -0.027,-83.706 z m 7.613,96.013 c -0.76,1.907 -3.667,0.973 -5.213,1.6 0.08,-2.187 0.16,-4.387 0.267,-6.573 1.88,-0.413 3.72,-1 5.493,-1.813 -1.147,2.133 -0.88,4.479 -0.547,6.786 z M 965.457,48.987 c 0.28,1.347 0.56,2.693 0.8,4.067 -1.107,1.347 -2.173,2.72 -3.213,4.107 -1.907,-0.16 -3.16,-1.587 -4.547,-2.68 -2.16,-0.613 -4.4,-0.467 -6.587,-0.587 -0.8,0.36 -2.4,1.067 -3.2,1.427 4.68,-3.841 11.573,-3.148 16.747,-6.334 z M 963.91,63.44 c 0.053,8.653 0.36,17.333 -0.253,25.973 -6.56,-6.507 -13.347,-12.88 -18.92,-20.267 6.186,-2.479 12.56,-4.693 19.173,-5.706 z m -30.96,9.6 c 1.693,-1.08 3.56,-1.88 5.387,-2.76 1.742,1.618 24.187,25.504 25.467,27.28 0.68,5.84 0.147,11.773 -0.213,17.627 -3.053,0.88 -6.973,2.76 -9.293,-0.52 -7.2,-8 -15.16,-15.533 -21.093,-24.52 -0.495,-5.68 -0.628,-11.427 -0.255,-17.107 z m 22.053,54.907 c -0.973,1.76 -1.907,1.827 -2.787,0.173 0.934,-1.747 1.867,-1.813 2.787,-0.173 z m -21.813,8.546 c 3.493,-1.053 8.08,-1.8 10.853,1.227 1.013,0.067 3.04,0.2 4.053,0.28 -4.96,2.133 -9.653,5.16 -15.253,5.133 0.747,-2.133 1.68,-4.493 0.347,-6.64 z m 0.427,-12.146 c -0.293,-1.8 -0.52,-3.587 -0.76,-5.373 0.907,-6.68 -0.28,-13.4 0.04,-20.093 6.44,4.68 9.973,12.293 16.173,17.32 0.467,1.333 1.667,2.6 1.24,4.12 -5.373,2.052 -10.867,4.012 -16.693,4.026 z m -1.04,30.4 c 1.799,-2.421 28.98,-14.196 32.52,-15.293 0.903,84.285 2.191,58.13 0.307,91.453 -2.627,-0.027 -5.24,-0.053 -7.84,-0.093 -0.067,1.48 -0.12,2.973 -0.147,4.453 2.027,0.16 4.08,0.32 6.133,0.493 0.16,2.147 -2.133,6.147 1.52,6.08 -6.413,2.36 -13.133,0.373 -19.707,0.893 -4.16,0.253 -8.253,1.053 -12.4,1.427 -0.053,-2.8 -0.12,-5.6 -0.187,-8.4 2.507,-0.827 5.493,-1.467 6.427,-4.333 -1.76,-0.2 -3.507,-0.373 -5.24,-0.533 -5.041,-17.294 -1.426,-75.093 -1.386,-76.147 z m -6.84,-79.027 c -0.373,2.333 0.227,5.547 -2.987,5.827 -0.08,-1.933 -0.147,-3.88 -0.187,-5.813 0.787,-10e-4 2.374,-0.014 3.174,-0.014 z m -5.68,8.76 c 7.714,7.15 5.379,1.332 5.427,38.32 -6.892,-5.809 -5.52,-3.355 -5.427,-38.32 z m -0.56,88.547 c -0.44,-6.04 0.28,-13.813 6.813,-16.36 2.61,23.033 1.957,60.676 0.907,71.12 -3.36,-0.373 -6.44,0.56 -7.96,3.72 0.76,-7.947 -1.067,-15.827 -0.533,-23.787 -0.334,-11.587 1.399,-23.107 0.773,-34.693 z m 8.32,70.866 c -2.52,0.147 -5.053,0.267 -7.547,0.413 1.28,-3.947 4.067,-6.987 6.933,-9.853 -0.12,3.16 -0.16,6.347 0.614,9.44 z M 914.11,65.76 c 2.893,1.933 0.107,5.08 -0.56,7.48 -5.8,0.707 -10.413,-3.573 -15.987,-3.32 l -0.107,-0.493 c 5.534,-1.214 10.961,-3.414 16.654,-3.667 z M 912.137,80 c -0.227,9.4 2.373,18.987 0.013,28.227 -7.107,-6.253 -12.133,-14.427 -18.72,-21.2 5.88,-3.187 12.32,-5.147 18.707,-7.027 z m -20.654,-3.813 c -1.28,1.467 -6.387,2.213 -7.16,0 2.12,-1.107 4.947,-0.8 7.16,0 z m -10.226,15.146 c 2.373,-1.493 6.067,-3.947 8.333,-0.973 26.478,28.792 24.151,25.968 22.987,42.173 -0.24,3.8 -4.827,4.2 -7.4,5.867 -8.067,-9.347 -15.76,-19.04 -23.267,-28.84 -1.347,-5.907 -0.173,-12.187 -0.653,-18.227 z m 26.08,58.254 c -2.187,0.227 -4.373,0.387 -6.56,0.507 0.893,-3.121 4.8,-2.401 6.56,-0.507 z m -25.8,-31.014 c 6.707,6.893 12.8,14.507 18.307,22.387 -5.613,3.027 -11.56,5.347 -17.613,7.307 -1.801,-9.774 -0.641,-19.814 -0.694,-29.694 z m 1.546,40.147 c 3.92,-0.693 7.92,0.093 11.88,0.307 -4.547,1.56 -9.2,2.827 -13.973,3.4 0.627,-1.28 1.32,-2.507 2.093,-3.707 z m 29.92,4.587 c 0.294,2.244 2.04,27.933 1.307,70.453 -2.107,0.053 -4.187,0.107 -6.253,0.16 0.133,3.427 0.253,6.84 0.36,10.267 5.267,1.253 1.373,-5.307 4.84,-6.213 0.88,2.053 0.693,4.347 1,6.52 -11.027,-0.747 -22,1.853 -33.053,0.853 0.413,-2.92 0.8,-5.84 0.987,-8.773 1.04,-0.067 3.133,-0.173 4.173,-0.24 0.053,-0.893 0.16,-2.707 0.213,-3.6 -1.48,-0.093 -2.947,-0.173 -4.4,-0.24 -3.436,-11.069 -2.321,-38.536 -1.187,-50.12 -0.177,-2.325 -1.612,-2.656 32.013,-19.067 z m -37.573,66.226 c -2.627,0.147 -5.173,0.907 -6.88,3.013 -0.663,-38.613 -0.577,-47.847 6.627,-48.867 1.173,15.241 1.533,30.601 0.253,45.854 z m -0.067,7.214 c -0.053,2.933 -0.16,5.867 -0.227,8.8 -2.12,0.093 -4.227,0.187 -6.32,0.307 -0.013,-1.96 -0.053,-3.92 -0.12,-5.867 1.613,0.413 3.227,0.827 4.867,1.24 0.56,-1.52 1.16,-3.014 1.8,-4.48 z m -3.08,-141.934 c 1.8,0.267 2.12,1.213 0.947,2.84 -1.8,-0.266 -2.107,-1.213 -0.947,-2.84 z m 2.4,44.96 c -0.227,2 0.68,4.907 -1.867,5.68 -1.107,-1.693 -2.213,-3.373 -3.373,-5.013 -0.147,-12.307 -0.32,-24.613 0,-36.907 4.184,4.149 5.014,1.49 5.24,36.24 z m -6.066,-61.106 c 2.787,1.467 -3.933,4.387 -3.987,1.56 1.053,-1.107 2.387,-1.627 3.987,-1.56 z m -4.214,6.4 c -4.333,-0.253 -5.147,6.093 -9.267,4.827 0.99,-0.654 0.593,-0.322 3.187,-2.747 -2.68,-0.107 -5.373,-0.213 -8.04,-0.333 4.414,-1.854 9.4,-3.907 14.12,-1.747 z m -3.24,45.146 c -2.445,-2.511 -17.068,-20.014 -18.827,-24.36 6.387,-2.213 12.267,-5.867 19.013,-7.013 -0.119,10.453 0.188,20.92 -0.186,31.373 z M 843.817,94.68 843.79,95.44 c -0.973,0.107 -2.933,0.32 -3.907,0.44 0.32,0.747 0.987,2.253 1.32,3 1.28,-0.533 2.587,-1.067 3.893,-1.587 -0.413,0.387 -1.253,1.187 -1.667,1.573 -2.413,0.12 -4.813,0.24 -7.187,0.387 0.293,-0.427 0.893,-1.253 1.2,-1.68 -1.973,-0.56 -3.987,-1.173 -5.133,-3 3.828,-0.2 7.668,-0.053 11.508,0.107 z m -7.027,14.52 c 8.64,9.04 15.827,19.467 24.453,28.547 0.227,6.92 0.28,13.867 0,20.787 -2.453,1.147 -4.92,2.293 -7.347,3.467 -8.76,-10.173 -16.973,-20.933 -24.187,-32.24 0.6,-5.973 -0.147,-11.933 -0.547,-17.893 2.428,-1.121 4.828,-2.855 7.628,-2.668 z m 21.253,68.893 c -0.96,1.093 -4.32,1.2 -4.093,-0.72 0.92,-1.093 4.267,-1.186 4.093,0.72 z m -28.52,-35.76 c 1.907,-1.907 3.053,1.24 4.227,2.253 4.907,6.68 10.4,13.027 14.12,20.493 -5.6,2.293 -10.787,5.88 -16.907,6.6 0.48,-9.879 -2.973,-19.452 -1.44,-29.346 z m 12.12,47.44 c -1.013,0.147 -3.027,0.453 -4.04,0.6 -1.907,2.827 -5.373,3.72 -8.2,5.253 0.933,-2.013 1.907,-4 2.933,-5.973 -0.76,-0.067 -2.28,-0.2 -3.04,-0.267 1.027,-1.413 2.04,-2.813 3.08,-4.227 3.507,0.227 7.027,0.48 10.547,0.587 -2.613,0.987 -5.8,1.387 -7.44,3.933 2.04,0.014 4.094,0.041 6.16,0.094 z m -12.293,19.254 c 10.44,-7.107 21.853,-12.653 32.893,-18.787 1.04,15.107 1.813,30.227 1.4,45.373 -2.093,0.147 -4.173,0.28 -6.24,0.4 0.067,0.773 0.187,2.32 0.24,3.093 1.96,0.507 3.92,1.04 5.907,1.56 -1.151,8.009 0.695,5.715 -33.173,6.173 -0.2,-2.653 -0.413,-5.28 -0.693,-7.92 2.747,-0.16 5.747,-0.387 6.787,-3.4 -2.04,-0.28 -4.04,-0.533 -6.067,-0.773 -2.094,-8.453 -1.214,-17.133 -1.054,-25.719 z m -4.92,21.586 c -2.013,0.947 -4.027,1.88 -6.027,2.84 -0.387,-6.36 -1.187,-12.96 1.853,-18.853 1.16,-0.8 2.347,-1.587 3.533,-2.373 0.841,6.093 0.961,12.253 0.641,18.386 z m -0.427,10.774 c -0.32,2.213 -0.627,4.427 -0.893,6.653 -1.667,0.04 -3.307,0.093 -4.947,0.16 0.067,-2.133 0.107,-4.267 0.147,-6.387 1.88,-0.146 3.787,-0.28 5.693,-0.426 z m -5.24,-116.04 c 1.88,2.2 4.453,4.427 3.92,7.68 -0.12,12.547 0.293,25.107 -0.4,37.64 -1.427,-2.16 -3.72,-4.08 -3.52,-6.893 -0.16,-5.507 -1.613,-11.013 -0.667,-16.52 1.483,-9.999 -0.555,-10.676 0.667,-21.907 z m 3.427,-10.28 c 0.987,1.107 1.4,4.053 -0.493,4.427 -2.454,-0.361 -2.2,-5.747 0.493,-4.427 z m -3.053,-17.44 c -1.653,2.4 -4.613,2.867 -7.173,3.733 0.533,3.067 0.893,6.16 1.453,9.227 -4.84,1.027 -9.813,1.093 -14.733,1.133 0.413,-0.827 1.267,-2.507 1.68,-3.333 -2.8,-0.013 -5.573,0.027 -8.36,0.08 18.772,-3.828 11.631,-6.109 27.133,-10.84 z m -8.56,56.386 c -2.013,-1.28 -3.893,-2.827 -5.107,-4.907 -4.44,-7.267 -10.347,-13.467 -14.933,-20.627 6.427,-3.12 12.867,-6.28 19.667,-8.52 0.799,11.334 0.426,22.708 0.373,34.054 z m -15.4,-37.64 c -1.853,0.4 -3.707,0.787 -5.547,1.133 -0.147,0.773 -0.427,2.32 -0.56,3.08 -0.88,0.093 -2.64,0.253 -3.52,0.333 1.173,-0.68 2.173,-1.56 3.027,-2.627 -2.853,0.04 -7.147,0.893 -7.52,-3.08 4.72,0.161 9.44,0.441 14.12,1.161 z m -16.534,35.374 c 0.173,-5.973 -0.013,-12.013 0.72,-17.96 1.827,-1.213 3.867,-2.04 5.853,-2.96 8.373,11.08 17.64,21.587 24.933,33.427 1,5.04 0.147,10.36 0.333,15.507 0.36,3.213 -2.32,5.427 -4.013,7.787 -1.227,0.32 -2.427,0.653 -3.627,1 -7.213,-8.8 -13.053,-18.627 -19.96,-27.667 -1.892,-2.761 -4.772,-5.454 -4.239,-9.134 z m 17.214,53.08 c 0.747,-0.28 2.267,-0.853 3.013,-1.133 0.28,-0.787 0.813,-2.347 1.08,-3.12 3.853,0.147 4.667,3.867 6.547,6.453 -2.093,-0.013 -4.16,0.027 -6.227,0.213 1.413,-0.747 2.373,-1.893 2.88,-3.44 -2.453,0.293 -4.88,0.667 -7.293,1.027 z m -7.209,14.504 3.742,-0.531 c -2.28,1.56 -4.747,2.88 -7.44,3.547 0.987,-0.693 2.987,-2.08 3.987,-2.773 -0.095,-0.093 -0.192,-0.164 -0.289,-0.243 z m 0.982,-2.651 c -0.252,0.663 -0.74,1.969 -0.995,2.64 -2.696,-2.213 -6.015,0.195 -9.138,-0.293 0.213,-1.147 0.627,-3.44 0.84,-4.587 4.28,-0.08 8.573,-0.147 12.867,0.08 -0.894,0.533 -2.681,1.613 -3.574,2.16 z m -9.84,-15.613 c -1.947,-4.573 1.653,-9.813 -0.947,-14.173 -0.627,-6.88 0.627,-13.733 0.56,-20.613 6.24,8.347 12.347,16.853 17.733,25.8 -5.546,3.292 -10.746,8.239 -17.346,8.986 z m 4.787,39.253 c 0.733,-1.16 1.467,-2.307 2.227,-3.453 18.052,-12.078 16.916,-12.71 24.667,-16.88 0.133,5.4 -0.053,10.84 1.147,16.16 -2.187,0.027 -4.36,0.08 -6.52,0.12 -0.253,0.96 -0.76,2.88 -1.013,3.853 1.52,0.787 3.107,1.413 4.76,1.933 0.533,2.04 1.013,4.093 1.533,6.16 -11.067,-0.773 -21.987,2 -33.053,1.133 -0.013,-2.747 -0.053,-5.48 -0.067,-8.213 2.092,-0.28 4.212,-0.546 6.319,-0.813 z M 769.55,138.88 c 1.813,0.293 2.093,1.213 0.84,2.773 -1.813,-0.306 -2.093,-1.226 -0.84,-2.773 z m 1.267,20.827 c -0.48,13.013 0.253,26.04 -0.587,39.04 -1.173,-2.173 -2.627,-4.387 -2.2,-6.987 0.373,-14.107 -0.493,-28.213 -0.12,-42.32 3.947,1.973 2.747,6.68 2.907,10.267 z m -22.68,-30.48 c 3.587,-1.013 7.253,-1.933 10.587,-3.667 l -2.787,-1.187 c 4.067,-2.213 8.253,-4.2 12.533,-5.987 -1.227,4.893 -7.053,4.36 -10.907,5.48 2.747,2.707 6.347,6.48 4,10.547 -5.56,0.12 -11.173,0.293 -16.68,-0.627 1.067,-0.36 3.213,-1.053 4.293,-1.413 -0.359,-1.04 -0.706,-2.093 -1.039,-3.146 z m 11.226,52 c -3.597,-3.573 -19.832,-26.931 -20.533,-27.933 6.613,-3.693 13.373,-7.4 20.64,-9.64 0.893,12.493 0.64,25.079 -0.107,37.573 z M 744.35,139.173 c -2.547,0.827 -5.2,1.427 -7.813,1.893 1.08,0.933 2.173,1.853 3.267,2.8 -2.24,0.387 -4.48,0.707 -6.72,0.96 1.04,-0.307 3.12,-0.92 4.16,-1.227 -1.667,-1 -3.613,-1.44 -5.533,-1.547 -0.76,-1.173 -1.507,-2.347 -2.227,-3.533 4.959,-0.066 9.919,0.188 14.866,0.654 z m -16.413,19.454 c 2.053,-1.267 4.173,-2.413 6.387,-3.373 36.055,54.764 22.547,29.89 25.693,58.76 -11.574,9.47 -8.221,2.443 -31.733,-32.173 -0.734,-7.708 -0.027,-15.481 -0.347,-23.214 z M 739.323,228 c -0.853,0.067 -2.56,0.213 -3.413,0.28 -1.987,1.64 -4.36,2.627 -6.893,2.947 -1.84,-12.147 -0.747,-24.467 -0.853,-36.68 6.973,8.347 12.413,17.987 17.187,27.733 -2.08,-2.747 -4.24,-5.773 -8.093,-5.653 0.785,3.76 2.105,7.466 2.065,11.373 z m -9.026,21.947 c 0.12,-0.907 0.333,-2.72 0.453,-3.64 0.813,-0.093 2.44,-0.307 3.253,-0.413 0.267,-0.52 0.8,-1.547 1.067,-2.053 3.187,0.04 6.347,0.64 9.547,0.813 -0.093,1.52 -0.16,3.053 -0.2,4.587 -5.253,2.267 -11.04,1.493 -16.6,1.893 0.626,-0.294 1.866,-0.894 2.48,-1.187 z m 6.413,30.92 c 0.227,-3.427 3.253,-2.453 5.453,-1.613 3.333,0.12 6.693,0.427 9.827,1.68 0.16,3.947 4.213,3.48 7,2.973 0.04,0.573 0.12,1.707 0.16,2.28 2.08,-0.187 4.173,-0.347 6.28,-0.507 0.48,-0.787 1.427,-2.347 1.907,-3.133 0.347,0.813 1.027,2.427 1.373,3.24 14.654,0.619 58.704,-0.025 66,0.96 3.573,-3.32 6.48,-7.6 10.747,-9.987 44.511,-3.204 584.437,-19.168 641.04,-12.307 0.693,-0.147 2.08,-0.427 2.773,-0.573 0,0 241.805,3.13 255.6,4.747 0.4,0.213 1.2,0.653 1.587,0.88 -3.133,-0.347 -6.56,0.04 -6.48,4.013 2.48,0.387 4.827,1.387 7.173,2.333 -1.467,1.787 -3,3.6 -3.6,5.88 0.787,0.027 2.36,0.053 3.147,0.08 -2.04,1.12 -3.56,2.747 -3.72,5.2 -4.24,-0.12 -8.813,-1.173 -12.653,1.147 -1.533,2.627 -3.44,5.013 -5.387,7.333 -2.92,-3.36 -4.92,-7.413 -5.48,-11.853 -2.92,-1.587 -6.027,-0.84 -6.147,2.947 -3.44,-1.427 -7.147,-0.96 -10.64,-0.173 -2.533,-0.533 -5.04,-1.173 -7.467,-2 -3.053,-0.173 -6.107,-0.347 -8.987,-1.373 -3.493,-4.813 -9.52,-4.613 -14.813,-4.093 -6.253,3.88 -13.867,2.867 -20.68,1.373 -2.64,-0.693 -5.027,0.653 -7.28,1.747 -5.053,2.24 -10.813,1.613 -16.027,2.493 -3.027,3.48 -7.227,4.867 -11.587,5.8 -1.293,2.333 -0.533,4.96 0.933,7.013 -1.773,2.987 -3.84,5.88 -7.04,7.427 -0.12,1.347 -0.2,2.693 -0.267,4.04 -2.853,0.773 -4.693,2.973 -5.653,5.667 1.413,1.48 2.88,2.987 4.307,4.507 1.427,-0.133 2.867,-0.24 4.333,-0.333 0.107,0.773 0.32,2.347 0.427,3.12 -4.32,1.093 -6.64,-3.293 -9.347,-5.72 -0.813,-0.133 -2.44,-0.4 -3.253,-0.533 -1.213,-3.92 -5.4,-4.947 -9.013,-5.067 -1.053,-1.827 -2.293,-3.52 -3.627,-5.12 -1.507,-0.013 -2.987,-0.027 -4.453,-0.053 -0.093,0.667 -0.267,1.973 -0.347,2.64 -0.84,-0.013 -2.533,-0.027 -3.387,-0.04 -0.347,2.387 -2.453,2.747 -4.427,3.12 0.013,0.507 0.053,1.52 0.08,2.04 -4.56,0.093 -8.96,1.293 -13.453,1.827 -1,1.133 -1.987,2.28 -2.947,3.427 -1.987,-0.507 -3.987,-0.84 -5.987,-1.093 -1.4,1.44 -2.813,2.853 -4.2,4.293 -0.523,3.862 -0.807,6.704 -17.827,7.893 -2.495,0.242 -6.259,-5.326 -7.867,-7.613 -0.097,-3.293 -5.162,-13.166 -4.507,-25.56 -5.973,0.573 -12.027,0.12 -17.24,-3.08 0.147,-4.92 -0.56,-9.787 -1.48,-14.613 -0.813,0 -2.427,-0.013 -3.24,-0.013 -0.32,4.027 -0.92,8.04 -1.573,12.04 -0.92,-5.333 0.027,-10.867 -1.627,-16.08 -0.88,0 -2.613,-0.027 -3.493,-0.04 0.04,6.907 0.627,13.96 -1.387,20.68 l 2.227,-0.2 c -4.227,1.467 -8.68,1.813 -13.093,1.32 0.227,1.76 0.507,3.533 0.84,5.307 -0.307,2.387 -0.573,4.787 -0.76,7.187 -0.747,0.68 -2.227,2.04 -2.973,2.72 -0.987,-1.627 -1.907,-3.253 -2.84,-4.88 -8.68,1.733 -17.507,-1.12 -26.067,1.653 -0.013,0.627 -0.013,1.893 -0.026,2.52 -1.733,-0.36 -3.427,-0.827 -5.067,-1.413 -8.547,0.387 -16.933,2.28 -25.453,2.787 -0.053,0.92 -0.173,2.773 -0.227,3.693 -2.587,0.8 -5.213,1.44 -7.867,1.88 -0.093,1.92 -0.147,3.84 -0.187,5.773 -0.653,0.52 -1.947,1.547 -2.587,2.053 -0.04,3.013 -0.027,6.027 0.027,9.04 -2.053,0.027 -4.067,0.08 -6.08,0.147 -1.52,0.52 -3.04,1.027 -4.547,1.52 -0.533,0.627 -1.6,1.88 -2.147,2.493 -1.573,-0.08 -3.147,-0.147 -4.68,-0.213 0.013,2.44 0.04,4.88 0.107,7.333 1.04,1.573 2.067,3.16 3.133,4.747 -1.373,0.68 -2.507,3.8 -4.147,2.587 -0.267,-0.693 -0.813,-2.08 -1.08,-2.76 -0.747,-0.013 -2.24,-0.027 -2.987,-0.027 0.227,4.427 -4.24,2.733 -7.04,2.92 0.013,0.933 0.026,2.813 0.026,3.747 24.603,0.302 1.807,-1.498 28.04,3.68 4.68,1.533 9.307,-2.92 13.867,-0.24 3.587,2.107 7.453,-2.4 10.8,0.333 1.693,0.147 3.413,0.253 5.16,0.387 1.907,1.52 4.094,2.693 5.92,4.347 0.56,2.56 -0.6,5.04 -1.213,7.48 -5.76,-2.774 -0.031,0.769 -18.28,-0.027 -0.533,-0.573 -1.613,-1.733 -2.147,-2.32 -3.587,-0.613 -7.093,-1.72 -10.733,-1.56 -2.72,1.28 -5.747,1.653 -8.413,2.987 -1.88,2.28 -3.52,4.76 -5.627,6.853 -0.08,0.987 -0.227,2.973 -0.293,3.96 -1.347,-0.627 -2.653,-1.28 -3.92,-1.973 0.013,-0.867 0.053,-2.573 0.067,-3.427 -4.953,-2.237 -2.503,-1.086 -8.827,-2.667 -8.112,-0.182 -21.063,-8.688 -23.467,3.52 -3.347,0.027 -6.68,0.027 -10,0.013 -0.56,-0.707 -1.68,-2.147 -2.24,-2.853 -3.787,0.893 -7.467,2.213 -11.307,2.773 -2.893,-1.213 -5.747,-2.613 -8.907,-2.893 -1.573,-4.533 -6.64,-4.893 -10.613,-5.84 -7.747,-2.587 -16.053,-2.107 -24.053,-1.6 -2.173,2.627 -5.12,4.667 -6.56,7.827 -3.747,0.88 -6.693,-1.36 -6.427,-5.267 -0.733,-0.067 -2.213,-0.2 -2.96,-0.267 -2.267,-5.453 -9.053,-3.133 -13.6,-4.08 -3.053,-2 -1.507,-6.253 -2.093,-9.307 3.373,0.72 9.4,-2.04 10.347,2.693 0.667,0 2.027,-0.013 2.707,-0.027 0.28,-0.6 0.853,-1.813 1.147,-2.427 10.48,-0.76 21.013,-0.173 31.52,-0.28 -0.027,-0.907 -0.093,-2.747 -0.12,-3.667 -15.52,-0.067 -31.053,0.12 -46.573,0.053 -0.08,-0.84 -0.267,-2.52 -0.347,-3.36 -1.52,-3.013 -1.133,-6.44 -1.2,-9.68 -1,-1 -1.973,-1.987 -2.933,-2.973 -0.893,-0.027 -2.667,-0.08 -3.547,-0.093 -3.227,5.56 3.12,10.44 1.64,16.293 -2.507,-0.267 -6.027,0.613 -6.16,-2.947 -1.587,0 -3.16,0.013 -4.72,0.04 0.027,2.08 0.067,4.173 0.12,6.267 3.987,-0.133 7.987,-0.107 11.987,0.107 -0.013,2.68 -0.013,5.373 -0.013,8.067 -6.08,1.4 -12.253,1.92 -18.227,-0.2 -1.267,-2.92 -4,-4.96 -7.24,-4.88 -4.947,0.213 -9.04,-2.707 -13.36,-4.6 -0.053,-1.413 -0.08,-2.813 -0.093,-4.2 -1.36,-0.627 -2.467,-1.52 -3.307,-2.693 -3.907,-0.84 -6.467,-4.027 -8.2,-7.387 -8.173,2.227 -16.253,5.867 -22.373,11.84 -3.08,0.693 -6.427,0.68 -9.493,0.013 -1.441,-1.455 -4.581,-5.1 -7.533,-9.24 -2.347,0.12 -4.693,0.253 -6.933,0.96 -3.537,-0.982 -5.171,-1.519 -23.2,3.12 -4.667,-2.853 -10.093,-2.92 -15.36,-2.373 -0.747,0.307 -2.24,0.947 -2.987,1.267 -1.173,-2.213 -1.88,-4.613 -2.453,-7.027 -4.907,1.347 -9.707,3.453 -14.893,3.027 -0.987,0.987 -1.96,1.973 -2.92,2.973 -0.053,0.987 -0.147,2.973 -0.187,3.96 -1.72,-0.667 -3.413,-1.36 -5.093,-2.067 -1.6,-3.613 -5.013,-8.013 -9.333,-5.213 -0.2,-3.293 -3.733,-3.627 -6.067,-4.787 -2.507,-0.96 -4.747,-2.747 -7.453,-3.027 -5.12,-0.773 -9.133,3.64 -14.293,3.027 -0.533,0.493 -1.573,1.48 -2.107,1.973 -15.177,3.593 -2.009,6.384 -20.693,7.013 -0.493,-0.56 -1.48,-1.707 -1.973,-2.267 -3.307,-0.973 -6.733,-2.453 -10.213,-1.427 -3.213,1 -7.52,1.307 -8.72,5.053 -1.84,0.027 -3.667,0.04 -5.467,0.067 -0.733,2.147 -2.813,3.093 -4.547,4.253 -0.093,-0.827 -0.293,-2.48 -0.387,-3.307 -6.267,3.187 -12.76,0.373 -19.267,0.24 -0.52,0.68 -1.547,2.013 -2.067,2.693 -4.133,-3.84 -9.373,-1.227 -14.227,-1.107 -0.107,0.8 -0.307,2.413 -0.413,3.213 -0.387,-0.787 -1.133,-2.36 -1.507,-3.147 -3.067,-0.747 -6.413,-2.52 -9.107,0.067 -1.76,-1.2 -3.707,-2.28 -4.56,-4.333 -2.427,0.04 -4.88,0.187 -7.08,1.293 -0.627,-2.013 -1.867,-3.72 -3.173,-5.307 -7.326,0.393 -21.123,-2.005 -24.2,6.667 -1.64,0.427 -3.28,0.867 -4.88,1.333 -0.013,-0.987 -0.027,-2.96 -0.04,-3.947 -2.04,-0.013 -4.08,-0.027 -6.107,-0.04 -0.533,-0.627 -1.587,-1.88 -2.12,-2.493 -1.627,-0.04 -3.24,-0.08 -4.853,-0.12 1,-5.253 -4.933,-4.88 -7.613,-7.733 -3.107,0.573 -6.213,1.2 -9.36,1.253 -3.093,1.827 -4.6,5.267 -7.4,7.4 -2.08,1.72 -4.92,2.853 -5.64,5.72 -1.453,0 -2.907,-0.013 -4.333,-0.013 -0.507,0.667 -1.533,1.973 -2.04,2.64 -2.813,0.053 -5.613,0.107 -8.4,0.08 -1.213,-2.533 -3.08,-4.627 -5.04,-6.587 -0.733,-0.013 -2.2,-0.053 -2.933,-0.08 0.027,3.427 -4.8,3.667 -5.747,0.693 -0.213,-0.827 -0.627,-2.493 -0.827,-3.32 -1.907,0.04 -3.8,0.093 -5.68,0.147 -0.533,0.693 -1.6,2.08 -2.133,2.773 -1.933,0.04 -3.84,0.08 -5.747,0.133 -2.36,1.613 -4.587,3.427 -7.133,4.747 -5.24,0.48 -10.507,0.24 -15.76,0.16 -0.52,-0.693 -1.573,-2.093 -2.093,-2.787 -0.773,0.093 -2.293,0.253 -3.053,0.333 -0.96,0.907 -1.893,1.827 -2.827,2.747 -1.6,-4.04 -6.227,-5.453 -9.667,-7.493 -6.013,0.44 -12.973,-1.747 -18.107,2.24 -3.187,1.467 -7.907,1 -8.92,5.293 -4.747,0.493 -9.467,-0.28 -13.987,-1.733 l 0.4,2.187 c -1.053,-1.387 -2.093,-2.773 -3.093,-4.173 -0.453,-0.333 -1.36,-1.027 -1.813,-1.373 -3.507,-6.413 -11.933,-6.653 -18.2,-5.08 -4.48,1.467 -9.107,-1.08 -13.587,0.307 -2.56,0.653 -4.147,2.893 -6,4.573 -2.933,1.173 -5.733,2.613 -8.587,3.96 -0.48,-0.64 -1.427,-1.933 -1.907,-2.573 -2.68,-0.533 -5.36,-1 -8.053,-1.347 -1.507,-1.36 -3,-2.72 -4.453,-4.093 -3.653,-0.76 -7.36,-1.133 -11.053,-1.387 -3.213,2.213 -7.64,4.053 -7.867,8.573 -3.707,-1.88 -8.32,-1.627 -11.52,-4.467 2.52,-0.88 4.4,-2.707 5.933,-4.84 4.89,-2.227 12.06,-10.454 14.547,-13.4 1.076,-0.868 50.689,-40.207 59.653,-45.76 4.922,0.281 9.722,-1.279 14.655,-0.692 z m -99.227,18.106 c -0.653,0.16 -1.973,0.48 -2.627,0.64 -1.547,1.667 -3.2,3.227 -4.867,4.76 -0.707,0.133 -2.12,0.373 -2.827,0.493 -0.133,-5.147 -0.36,-10.293 0,-15.44 4.227,0.04 8.467,0.053 12.72,-0.04 1.013,-1.08 2.067,-2.147 3.133,-3.187 0.907,2.347 1.653,4.76 2.147,7.227 -2.785,1.494 -6.039,2.654 -7.679,5.547 z M 681.55,240.6 c -0.88,-0.053 -2.653,-0.133 -3.533,-0.173 0.2,-5.613 -0.44,-11.187 -0.507,-16.787 5.723,8.744 12.253,26.291 15.6,29.24 -4.787,-1.16 -9.72,-0.747 -14.587,-0.733 -0.107,-2.373 -0.227,-4.747 -0.307,-7.12 2.694,-0.16 3.547,-1.947 3.334,-4.427 z m 38.48,-52.893 c -0.333,13.92 0.587,27.893 -0.827,41.773 -2.003,-4.307 -2.43,-3.88 -1.84,-53.187 3.774,2.614 2.44,7.52 2.667,11.414 z M 702.017,150.04 c 4.6,-3.56 10.147,-5.56 15.48,-7.76 -1.387,3.627 -4.933,5.107 -8.413,6.027 1.547,3.373 5.387,6.933 2.413,10.64 -1.347,0.573 -2.693,1.16 -4.013,1.773 -5.507,-0.6 -11.293,0.133 -16.573,-1.76 -0.347,-0.44 -1.053,-1.32 -1.4,-1.773 -0.693,0.107 -2.093,0.307 -2.787,0.4 5.119,-2.44 11.026,-3.6 15.293,-7.547 z m 6.733,62.133 c -1.647,-2.112 -19.134,-29.538 -20.747,-32.587 0.4,-0.533 1.2,-1.613 1.6,-2.147 6.6,-2.64 12.64,-6.507 19.4,-8.76 0.494,14.481 0.52,29.028 -0.253,43.494 z m -14.027,-47.56 c -16.264,4.269 -13.145,4.252 -16.333,-0.573 5.44,-0.627 10.92,-0.2 16.333,0.573 z m -17.466,21.654 c -0.133,-2.867 2.853,-3.76 5.08,-4.267 24.018,44.274 29.97,36.214 24.747,56.773 -0.973,-0.027 -2.907,-0.053 -3.88,-0.067 -0.56,1.587 -1.387,3.133 -1.56,4.84 1.12,2.12 4.8,4.6 0.907,6.133 -5.253,-3.867 -5.547,-11.347 -10.36,-15.747 -5.333,-8.04 -10.587,-16.24 -14.347,-25.16 -0.721,-7.452 -0.667,-15.025 -0.587,-22.505 z m -2.334,100.773 c 1.707,-1.053 3.4,-2.147 5.053,-3.293 4.013,-0.04 8.027,0.187 12.04,0.48 -5.453,3.16 -11.36,5.293 -17.173,7.653 0.014,-1.613 0.04,-3.227 0.08,-4.84 z m -7.733,-82.387 c 2.427,8.8 1.267,18.08 0.933,27.08 0.613,2.347 0.507,4.64 -0.867,6.707 0.107,-11.267 -1.186,-22.533 -0.066,-33.787 z m -0.587,-37.16 c -0.867,1.32 -1.733,2.64 -2.587,3.96 -3.293,0.84 -6.507,1.933 -9.773,2.853 3.747,-2.893 8.04,-4.933 12.36,-6.813 z m -15.866,13.027 0.173,-1.613 c -0.707,0.093 -2.107,0.28 -2.813,0.36 1.293,-0.493 2.587,-0.987 3.893,-1.48 0.627,0.12 1.88,0.347 2.52,0.453 1.133,-2.507 3.64,-1.293 5.653,-1.013 l -3.8,0.92 c 1.6,1.32 3.28,3.2 5.747,1.907 -0.733,1.56 -1.093,3.373 -2.387,4.587 -5.773,0.813 -11.64,0.267 -17.427,-0.213 4.52,-1.293 9.12,-2.373 13.813,-2.76 0.053,-0.76 0.147,-2.267 0.2,-3.027 -2.439,-0.494 -4.292,0.132 -5.572,1.879 z m 6.693,13.6 c -0.164,27.882 2.606,14.307 -0.547,46.973 0.32,0.76 0.96,2.293 1.267,3.053 -1.413,-1.773 -2.52,-3.773 -3.107,-5.96 -4.906,-8.515 -9.768,-12.648 -19.493,-34 7.013,-3.879 14.587,-6.706 21.88,-10.066 z m -31.373,13.667 c 4.72,0.2 5.773,5.213 7.92,8.507 4.893,8.027 9.693,16.347 12.307,25.413 2.56,3.627 4.173,7.787 6.293,11.667 -4.907,1.307 -9.987,1.52 -15.027,1.467 -0.6,-4.493 -5.747,-7.2 -4.68,-11.973 -0.573,-0.48 -1.72,-1.413 -2.293,-1.893 -2.727,-6.399 -6.14,-7.274 -4.52,-33.188 z m 1.666,116.36 c 4.267,0 8.533,-0.013 12.8,0.293 -3.187,1.16 -6.813,1.373 -9.427,3.733 -2.667,0.213 -5.16,0.947 -6.827,3.133 0.921,-2.493 2.174,-4.839 3.454,-7.159 z M 610.817,204.44 c -1.84,2.48 -5.32,2.227 -7.293,4.453 -3.08,-2.147 -6.8,-1.653 -10.32,-1.68 5.866,-0.893 11.759,-1.706 17.613,-2.773 z m -26.84,21.813 c 7.787,-3.28 15.387,-7.427 23.64,-9.4 0.533,9.347 -1.107,18.653 -0.387,27.987 -2.36,0.267 -4.707,0.52 -7.053,0.747 0,0.707 0,2.12 0.013,2.813 2.347,0.6 4.707,1.24 7.053,1.88 0,1.067 0.013,3.213 0.013,4.293 -2.96,1.84 -6.453,1.64 -9.787,1.56 -3.707,-10.04 -10.333,-18.72 -14.427,-28.56 0.228,-0.333 0.708,-0.986 0.935,-1.32 z m 3.72,30.747 c -1.293,-0.347 -2.587,-0.667 -3.867,-0.973 -1.293,-2.48 -2.44,-5.04 -3.307,-7.68 l -1.373,0.613 c 0.64,-0.467 1.92,-1.4 2.547,-1.88 -0.573,-2.84 -3.507,-3.987 -5.947,-4.813 -0.24,-4.04 -0.427,-8.08 -0.547,-12.107 3.601,4.768 9.427,22.491 12.494,26.84 z m -37.2,76.173 c -4.493,0.293 -9.373,2.8 -13.493,-0.107 -0.053,-1.893 -0.133,-3.8 -0.2,-5.693 5.333,-0.813 10.88,-2.373 16.133,-0.173 -0.814,2 -1.627,3.987 -2.44,5.973 z m -3.507,-46.506 c 1.96,0.107 3.933,0.227 5.907,0.36 -1.027,2.733 -2.133,5.467 -3.587,8.027 -2.12,-2.321 -2.253,-5.427 -2.32,-8.387 z m -7.067,-51.56 c 12.466,6.856 10.365,13.094 13.627,22.36 -3.547,-0.04 -7.107,0.24 -10.613,-0.267 -2.533,-4.613 -4.8,-9.453 -6.573,-14.427 -1.053,-1.053 -2.107,-2.093 -3.16,-3.147 2.346,-1.333 4.439,-3.053 6.719,-4.519 z m -8.746,51.733 c 1.853,0.027 3.733,-0.027 5.6,0.213 2.88,4.853 4.867,10.227 6.467,15.64 0.773,2.52 -0.2,5.04 -0.96,7.44 h -3.187 c -3.04,-7.6 -9.36,-14.573 -7.92,-23.293 z M 359.203,265.253 c -0.88,0.053 -2.627,0.133 -3.507,0.173 -0.027,-2.173 -0.053,-4.347 -0.08,-6.52 3.987,-0.186 3.321,3.587 3.587,6.347 z m -305.32,8.12 c 2.402,-0.53 2.838,1.145 8.32,2.8 -0.307,0.68 -0.613,1.347 -0.947,2.027 -2.347,-1.8 -5.187,-0.6 -7.76,-0.387 0.72,-0.24 2.173,-0.733 2.893,-0.987 -1.172,-1.013 -2.012,-2.159 -2.506,-3.453 z"
     id="path2"
     style="fill:#006680" />
  <path
     d="m 1008.353,99.941 c 0.19,3.34 2.91,-1.6 0,0"
     id="path4" />
  <path
     d="m 1668.257,71.947 c 0.4,4.426 3.826,-2.227 0,0"
     id="path6" />
  <path
     d="m 1010.973,149.141 c -1.55,2.94 3.34,0.19 0,0"
     id="path8" />
  <path
     d="m 1511.223,149.051 c -1.93,2.71 3.29,0.6 0,0"
     id="path10" />
  <path
     d="m 1010.283,158.121 c 0.44,0.6 0.44,0.6 0,0"
     id="path12" />
  <path
     d="m 972.273,166.111 c -1.65,2.89 3.33,0.32 0,0"
     id="path14" />
  <path
     d="m 716.163,229.201 c 0.64,0.38 0.64,0.38 0,0"
     id="path16" />
  <path
     d="m 582.343,249.221 c 0.54,0.49 0.54,0.49 0,0"
     id="path18" />
  <path
     d="m 437.313,257.151 c 0.53,0.57 0.53,0.57 0,0"
     id="path20" />
  <path
     d="m 705.413,344.941 c 0.04,3.3 3.06,-1.44 0,0"
     id="path22" />
  <path
     d="m 374.153,347.111 c 0.49,0.56 0.49,0.56 0,0"
     id="path24" />
  <path
     d="m 796.073,351.141 c -1.5,3.05 3.29,0.13 0,0"
     id="path26" />
  <path
     d="m 1453.223,358.131 c 0.56,0.51 0.56,0.51 0,0 z"
     id="path28" />
</svg>
